<svg width="1170" height="482" viewBox="0 0 1170 482" fill="none" xmlns="http://www.w3.org/2000/svg">
<rect x="803" y="1" width="366" height="480" rx="4" fill="#F9F9F9" stroke="url(#paint0_linear)" stroke-width="2"/>
<path d="M906.964 311.916C906.964 309.76 907.55 307.99 908.722 306.607C909.894 305.225 911.458 304.533 913.415 304.533C914.025 304.533 914.599 304.621 915.138 304.797C915.677 304.973 916.128 305.189 916.491 305.447C916.866 305.693 917.206 305.986 917.511 306.326C917.827 306.654 918.068 306.953 918.232 307.223C918.396 307.492 918.536 307.762 918.654 308.031L916.404 308.752C916.216 308.471 916.052 308.242 915.911 308.066C915.771 307.891 915.577 307.691 915.331 307.469C915.085 307.234 914.804 307.064 914.488 306.959C914.171 306.842 913.82 306.783 913.433 306.783C912.249 306.783 911.323 307.252 910.656 308.189C909.999 309.115 909.671 310.357 909.671 311.916C909.671 313.486 910.011 314.74 910.691 315.678C911.37 316.615 912.249 317.084 913.327 317.084C914.241 317.084 914.962 316.832 915.489 316.328C916.017 315.824 916.327 315.168 916.421 314.359C916.468 313.703 916.491 313.334 916.491 313.252H913.169V311.002H919.023V319H917.23L916.984 317.734C916.187 318.789 914.939 319.316 913.239 319.316C911.447 319.316 909.952 318.648 908.757 317.312C907.562 315.977 906.964 314.178 906.964 311.916ZM920.859 313.779C920.859 312.104 921.316 310.779 922.23 309.807C923.156 308.822 924.316 308.33 925.711 308.33C927.07 308.33 928.201 308.828 929.103 309.824C930.017 310.82 930.474 312.121 930.474 313.727C930.474 314.16 930.463 314.482 930.439 314.693H923.408C923.408 315.408 923.625 316.023 924.058 316.539C924.504 317.055 925.107 317.312 925.869 317.312C926.408 317.312 926.883 317.178 927.293 316.908C927.715 316.627 928.031 316.275 928.242 315.854L930.334 316.592C930.006 317.365 929.449 318.016 928.664 318.543C927.891 319.059 926.935 319.316 925.799 319.316C924.346 319.316 923.156 318.818 922.23 317.822C921.316 316.814 920.859 315.467 920.859 313.779ZM923.426 312.953H927.926C927.926 312.227 927.726 311.605 927.328 311.09C926.941 310.574 926.402 310.316 925.711 310.316C925.008 310.316 924.451 310.58 924.041 311.107C923.642 311.623 923.437 312.238 923.426 312.953ZM931.678 310.773V308.646H933.225V305.641H935.721V308.646H937.971V310.773H935.721V315.59C935.721 316.434 936.09 316.855 936.829 316.855H937.989V319H936.512C935.504 319 934.702 318.742 934.104 318.227C933.518 317.711 933.225 316.885 933.225 315.748V310.773H931.678ZM944.896 307.328V304.656H947.498V307.328H944.896ZM944.967 319V308.646H947.445V319H944.967ZM950.284 319V308.646H952.709V309.789C952.885 309.438 953.202 309.109 953.659 308.805C954.127 308.488 954.731 308.33 955.469 308.33C957.731 308.33 958.862 309.672 958.862 312.355V319H956.366V312.654C956.366 311.857 956.243 311.295 955.997 310.967C955.75 310.639 955.387 310.475 954.907 310.475C954.297 310.475 953.793 310.721 953.395 311.213C952.997 311.705 952.797 312.32 952.797 313.059V319H950.284ZM965.295 310.773V308.646H966.842V305.641H969.338V308.646H971.588V310.773H969.338V315.59C969.338 316.434 969.707 316.855 970.445 316.855H971.605V319H970.129C969.121 319 968.318 318.742 967.72 318.227C967.134 317.711 966.842 316.885 966.842 315.748V310.773H965.295ZM975.674 313.832C975.674 315.004 975.897 315.854 976.342 316.381C976.799 316.908 977.321 317.172 977.907 317.172C978.481 317.172 978.996 316.908 979.453 316.381C979.922 315.842 980.157 314.992 980.157 313.832C980.157 312.66 979.928 311.811 979.471 311.283C979.014 310.744 978.493 310.475 977.907 310.475C977.321 310.475 976.799 310.738 976.342 311.266C975.897 311.793 975.674 312.648 975.674 313.832ZM973.09 313.832C973.09 312.297 973.494 310.996 974.303 309.93C975.112 308.863 976.313 308.33 977.907 308.33C978.985 308.33 979.899 308.6 980.649 309.139C981.399 309.678 981.932 310.352 982.248 311.16C982.565 311.957 982.723 312.848 982.723 313.832C982.723 314.301 982.682 314.77 982.6 315.238C982.518 315.695 982.36 316.176 982.125 316.68C981.903 317.184 981.616 317.629 981.264 318.016C980.924 318.391 980.461 318.701 979.875 318.947C979.301 319.193 978.645 319.316 977.907 319.316C977.18 319.316 976.53 319.199 975.955 318.965C975.381 318.73 974.918 318.432 974.567 318.068C974.215 317.693 973.922 317.26 973.688 316.768C973.465 316.264 973.307 315.777 973.213 315.309C973.131 314.828 973.09 314.336 973.09 313.832ZM984.683 315.203V308.646H987.214V314.922C987.214 316.422 987.724 317.172 988.743 317.172C989.364 317.172 989.851 316.902 990.202 316.363C990.554 315.812 990.729 315.162 990.729 314.412V308.646H993.226V319H990.817V317.928H990.782C990.595 318.291 990.272 318.613 989.815 318.895C989.37 319.176 988.831 319.316 988.198 319.316C987.8 319.316 987.413 319.258 987.038 319.141C986.675 319.023 986.306 318.83 985.931 318.561C985.556 318.279 985.251 317.852 985.017 317.277C984.794 316.703 984.683 316.012 984.683 315.203ZM995.343 313.832C995.343 312.145 995.795 310.809 996.697 309.824C997.599 308.828 998.759 308.33 1000.18 308.33C1001.24 308.33 1002.13 308.658 1002.85 309.314C1003.56 309.959 1004.01 310.691 1004.19 311.512L1002.06 312.092C1001.93 311.658 1001.71 311.283 1001.39 310.967C1001.07 310.639 1000.68 310.475 1000.21 310.475C999.474 310.475 998.906 310.797 998.507 311.441C998.121 312.074 997.927 312.871 997.927 313.832C997.927 314.898 998.144 315.725 998.578 316.311C999.011 316.885 999.556 317.172 1000.21 317.172C1000.73 317.172 1001.17 316.996 1001.55 316.645C1001.92 316.281 1002.18 315.871 1002.3 315.414L1004.43 316.012C1004.22 316.879 1003.72 317.646 1002.94 318.314C1002.15 318.982 1001.23 319.316 1000.18 319.316C998.748 319.316 997.582 318.818 996.679 317.822C995.789 316.826 995.343 315.496 995.343 313.832ZM1006.37 319V304.393H1008.85V309.508H1008.9C1009.19 309.156 1009.55 308.875 1009.99 308.664C1010.45 308.441 1010.93 308.33 1011.44 308.33C1012.42 308.33 1013.25 308.652 1013.91 309.297C1014.58 309.93 1014.92 310.949 1014.92 312.355V319H1012.42V312.637C1012.42 311.195 1011.93 310.475 1010.96 310.475C1010.35 310.475 1009.85 310.738 1009.45 311.266C1009.05 311.781 1008.85 312.402 1008.85 313.129V319H1006.37ZM1021.21 308.646H1023.9L1024.83 313.48C1024.83 313.504 1024.89 313.896 1025.02 314.658C1025.15 315.42 1025.26 316.047 1025.36 316.539H1025.43C1025.49 316.223 1025.59 315.701 1025.73 314.975C1025.87 314.248 1025.96 313.75 1026.01 313.48L1026.97 308.646H1029.54L1030.51 313.498C1030.55 313.768 1030.64 314.254 1030.77 314.957C1030.91 315.66 1031.01 316.188 1031.07 316.539H1031.14C1031.19 316.258 1031.37 315.238 1031.69 313.48L1032.6 308.646H1035.29L1032.51 319H1029.77L1028.82 314.324C1028.77 314.008 1028.69 313.516 1028.56 312.848C1028.43 312.18 1028.34 311.688 1028.29 311.371H1028.22C1028.16 311.746 1028.06 312.297 1027.92 313.023C1027.79 313.738 1027.72 314.172 1027.69 314.324L1026.75 319H1024L1021.21 308.646ZM1037.05 307.328V304.656H1039.66V307.328H1037.05ZM1037.13 319V308.646H1039.6V319H1037.13ZM1041.58 310.773V308.646H1043.13V305.641H1045.62V308.646H1047.87V310.773H1045.62V315.59C1045.62 316.434 1045.99 316.855 1046.73 316.855H1047.89V319H1046.41C1045.41 319 1044.6 318.742 1044.01 318.227C1043.42 317.711 1043.13 316.885 1043.13 315.748V310.773H1041.58ZM1050.04 319V304.393H1052.52V309.508H1052.58C1052.86 309.156 1053.22 308.875 1053.67 308.664C1054.12 308.441 1054.6 308.33 1055.11 308.33C1056.09 308.33 1056.92 308.652 1057.59 309.297C1058.25 309.93 1058.59 310.949 1058.59 312.355V319H1056.09V312.637C1056.09 311.195 1055.6 310.475 1054.63 310.475C1054.02 310.475 1053.52 310.738 1053.12 311.266C1052.72 311.781 1052.52 312.402 1052.52 313.129V319H1050.04ZM867.419 340.646H870.144L871.813 345.744C871.872 345.932 872.083 346.705 872.446 348.064H872.517C872.751 347.139 872.956 346.365 873.132 345.744L874.644 340.646H877.368L873.114 352.248C872.716 353.314 872.2 354.064 871.567 354.498C870.935 354.932 870.144 355.148 869.194 355.148H868.474V353.039H868.79C869.341 353.039 869.78 352.934 870.108 352.723C870.448 352.512 870.718 352.137 870.917 351.598L871.233 350.631L867.419 340.646ZM880.541 345.832C880.541 347.004 880.763 347.854 881.209 348.381C881.666 348.908 882.187 349.172 882.773 349.172C883.347 349.172 883.863 348.908 884.32 348.381C884.789 347.842 885.023 346.992 885.023 345.832C885.023 344.66 884.795 343.811 884.338 343.283C883.881 342.744 883.359 342.475 882.773 342.475C882.187 342.475 881.666 342.738 881.209 343.266C880.763 343.793 880.541 344.648 880.541 345.832ZM877.957 345.832C877.957 344.297 878.361 342.996 879.17 341.93C879.978 340.863 881.179 340.33 882.773 340.33C883.851 340.33 884.765 340.6 885.515 341.139C886.265 341.678 886.798 342.352 887.115 343.16C887.431 343.957 887.589 344.848 887.589 345.832C887.589 346.301 887.548 346.77 887.466 347.238C887.384 347.695 887.226 348.176 886.992 348.68C886.769 349.184 886.482 349.629 886.131 350.016C885.791 350.391 885.328 350.701 884.742 350.947C884.168 351.193 883.511 351.316 882.773 351.316C882.047 351.316 881.396 351.199 880.822 350.965C880.248 350.73 879.785 350.432 879.433 350.068C879.082 349.693 878.789 349.26 878.554 348.768C878.332 348.264 878.173 347.777 878.08 347.309C877.998 346.828 877.957 346.336 877.957 345.832ZM889.549 347.203V340.646H892.08V346.922C892.08 348.422 892.59 349.172 893.61 349.172C894.231 349.172 894.717 348.902 895.069 348.363C895.42 347.812 895.596 347.162 895.596 346.412V340.646H898.092V351H895.684V349.928H895.649C895.461 350.291 895.139 350.613 894.682 350.895C894.237 351.176 893.698 351.316 893.065 351.316C892.666 351.316 892.28 351.258 891.905 351.141C891.541 351.023 891.172 350.83 890.797 350.561C890.422 350.279 890.117 349.852 889.883 349.277C889.66 348.703 889.549 348.012 889.549 347.203ZM900.772 351V340.646H903.181V341.631C903.392 341.279 903.702 340.975 904.112 340.717C904.534 340.459 905.02 340.33 905.571 340.33C906.11 340.33 906.55 340.395 906.89 340.523V342.826C906.479 342.697 906.046 342.633 905.589 342.633C904.839 342.633 904.265 342.926 903.866 343.512C903.479 344.098 903.286 344.883 903.286 345.867V351H900.772ZM915.696 345.814C915.696 346.846 915.883 347.666 916.258 348.275C916.645 348.873 917.184 349.172 917.875 349.172C918.531 349.172 919.059 348.885 919.457 348.311C919.856 347.725 920.055 346.893 920.055 345.814C920.055 344.783 919.862 343.969 919.475 343.371C919.088 342.773 918.555 342.475 917.875 342.475C917.184 342.475 916.645 342.785 916.258 343.406C915.883 344.016 915.696 344.818 915.696 345.814ZM913.235 355.148V340.646H915.643V341.807C916.287 340.822 917.149 340.33 918.227 340.33C919.492 340.33 920.541 340.822 921.373 341.807C922.217 342.791 922.639 344.127 922.639 345.814C922.639 346.775 922.504 347.625 922.235 348.363C921.965 349.09 921.608 349.664 921.162 350.086C920.717 350.496 920.242 350.801 919.738 351C919.246 351.211 918.742 351.316 918.227 351.316C917.594 351.316 917.067 351.182 916.645 350.912C916.235 350.631 915.93 350.314 915.731 349.963V355.148H913.235ZM924.739 351V340.646H927.147V341.631C927.358 341.279 927.669 340.975 928.079 340.717C928.501 340.459 928.987 340.33 929.538 340.33C930.077 340.33 930.516 340.395 930.856 340.523V342.826C930.446 342.697 930.013 342.633 929.556 342.633C928.806 342.633 928.231 342.926 927.833 343.512C927.446 344.098 927.253 344.883 927.253 345.867V351H924.739ZM931.779 345.779C931.779 344.104 932.236 342.779 933.15 341.807C934.076 340.822 935.236 340.33 936.63 340.33C937.99 340.33 939.121 340.828 940.023 341.824C940.937 342.82 941.394 344.121 941.394 345.727C941.394 346.16 941.382 346.482 941.359 346.693H934.328C934.328 347.408 934.544 348.023 934.978 348.539C935.423 349.055 936.027 349.312 936.789 349.312C937.328 349.312 937.802 349.178 938.212 348.908C938.634 348.627 938.951 348.275 939.162 347.854L941.253 348.592C940.925 349.365 940.369 350.016 939.583 350.543C938.81 351.059 937.855 351.316 936.718 351.316C935.265 351.316 934.076 350.818 933.15 349.822C932.236 348.814 931.779 347.467 931.779 345.779ZM934.345 344.953H938.845C938.845 344.227 938.646 343.605 938.248 343.09C937.861 342.574 937.322 342.316 936.63 342.316C935.927 342.316 935.371 342.58 934.96 343.107C934.562 343.623 934.357 344.238 934.345 344.953ZM942.721 342.773V340.646H944.25V339.645C944.25 338.578 944.52 337.77 945.059 337.219C945.598 336.668 946.359 336.393 947.344 336.393H949.084V338.537H947.713C947.385 338.537 947.145 338.637 946.992 338.836C946.852 339.035 946.781 339.363 946.781 339.82V340.646H948.838V342.773H946.781V351H944.25V342.773H942.721ZM950.007 345.779C950.007 344.104 950.464 342.779 951.378 341.807C952.303 340.822 953.464 340.33 954.858 340.33C956.218 340.33 957.348 340.828 958.251 341.824C959.165 342.82 959.622 344.121 959.622 345.727C959.622 346.16 959.61 346.482 959.587 346.693H952.555C952.555 347.408 952.772 348.023 953.206 348.539C953.651 349.055 954.255 349.312 955.016 349.312C955.555 349.312 956.03 349.178 956.44 348.908C956.862 348.627 957.178 348.275 957.389 347.854L959.481 348.592C959.153 349.365 958.596 350.016 957.811 350.543C957.038 351.059 956.083 351.316 954.946 351.316C953.493 351.316 952.303 350.818 951.378 349.822C950.464 348.814 950.007 347.467 950.007 345.779ZM952.573 344.953H957.073C957.073 344.227 956.874 343.605 956.475 343.09C956.089 342.574 955.55 342.316 954.858 342.316C954.155 342.316 953.598 342.58 953.188 343.107C952.79 343.623 952.585 344.238 952.573 344.953ZM961.687 351V340.646H964.095V341.631C964.306 341.279 964.617 340.975 965.027 340.717C965.449 340.459 965.935 340.33 966.486 340.33C967.025 340.33 967.464 340.395 967.804 340.523V342.826C967.394 342.697 966.96 342.633 966.503 342.633C965.753 342.633 965.179 342.926 964.781 343.512C964.394 344.098 964.201 344.883 964.201 345.867V351H961.687ZM969.289 351V340.646H971.697V341.631C971.908 341.279 972.219 340.975 972.629 340.717C973.051 340.459 973.537 340.33 974.088 340.33C974.627 340.33 975.066 340.395 975.406 340.523V342.826C974.996 342.697 974.563 342.633 974.105 342.633C973.355 342.633 972.781 342.926 972.383 343.512C971.996 344.098 971.803 344.883 971.803 345.867V351H969.289ZM976.329 345.779C976.329 344.104 976.786 342.779 977.7 341.807C978.626 340.822 979.786 340.33 981.18 340.33C982.54 340.33 983.671 340.828 984.573 341.824C985.487 342.82 985.944 344.121 985.944 345.727C985.944 346.16 985.932 346.482 985.909 346.693H978.878C978.878 347.408 979.094 348.023 979.528 348.539C979.973 349.055 980.577 349.312 981.339 349.312C981.878 349.312 982.352 349.178 982.762 348.908C983.184 348.627 983.501 348.275 983.712 347.854L985.803 348.592C985.475 349.365 984.919 350.016 984.133 350.543C983.36 351.059 982.405 351.316 981.268 351.316C979.815 351.316 978.626 350.818 977.7 349.822C976.786 348.814 976.329 347.467 976.329 345.779ZM978.895 344.953H983.395C983.395 344.227 983.196 343.605 982.798 343.09C982.411 342.574 981.872 342.316 981.18 342.316C980.477 342.316 979.921 342.58 979.51 343.107C979.112 343.623 978.907 344.238 978.895 344.953ZM987.447 345.814C987.447 344.104 987.857 342.762 988.677 341.789C989.509 340.816 990.576 340.33 991.876 340.33C992.427 340.33 992.913 340.459 993.335 340.717C993.769 340.963 994.103 341.256 994.337 341.596V336.393H996.851V351H994.408V349.822C994.185 350.232 993.839 350.584 993.37 350.877C992.913 351.17 992.409 351.316 991.859 351.316C991.308 351.316 990.781 351.211 990.277 351C989.773 350.801 989.304 350.496 988.87 350.086C988.437 349.664 988.091 349.09 987.833 348.363C987.576 347.625 987.447 346.775 987.447 345.814ZM990.031 345.814C990.031 346.893 990.224 347.725 990.611 348.311C991.009 348.885 991.548 349.172 992.228 349.172C992.872 349.172 993.388 348.873 993.775 348.275C994.173 347.678 994.372 346.857 994.372 345.814C994.372 344.818 994.185 344.016 993.81 343.406C993.435 342.785 992.908 342.475 992.228 342.475C991.513 342.475 990.968 342.779 990.593 343.389C990.218 343.998 990.031 344.807 990.031 345.814ZM1003.81 345.832C1003.81 344.145 1004.26 342.809 1005.16 341.824C1006.07 340.828 1007.23 340.33 1008.65 340.33C1009.71 340.33 1010.6 340.658 1011.32 341.314C1012.03 341.959 1012.48 342.691 1012.65 343.512L1010.53 344.092C1010.4 343.658 1010.17 343.283 1009.86 342.967C1009.54 342.639 1009.15 342.475 1008.68 342.475C1007.94 342.475 1007.37 342.797 1006.98 343.441C1006.59 344.074 1006.4 344.871 1006.4 345.832C1006.4 346.898 1006.61 347.725 1007.05 348.311C1007.48 348.885 1008.02 349.172 1008.68 349.172C1009.2 349.172 1009.64 348.996 1010.02 348.645C1010.39 348.281 1010.64 347.871 1010.77 347.414L1012.9 348.012C1012.69 348.879 1012.19 349.646 1011.4 350.314C1010.62 350.982 1009.7 351.316 1008.65 351.316C1007.22 351.316 1006.05 350.818 1005.15 349.822C1004.26 348.826 1003.81 347.496 1003.81 345.832ZM1016.7 348.012C1016.7 348.352 1016.83 348.639 1017.09 348.873C1017.36 349.107 1017.72 349.225 1018.16 349.225C1018.83 349.225 1019.4 349.002 1019.87 348.557C1020.34 348.111 1020.57 347.525 1020.57 346.799V345.99C1020.1 346.107 1019.51 346.219 1018.78 346.324C1017.4 346.547 1016.7 347.109 1016.7 348.012ZM1014.14 348.223C1014.14 347.273 1014.5 346.494 1015.21 345.885C1015.94 345.275 1017.01 344.865 1018.44 344.654C1019.57 344.467 1020.28 344.332 1020.57 344.25V343.705C1020.57 343.248 1020.41 342.902 1020.08 342.668C1019.75 342.422 1019.32 342.299 1018.78 342.299C1017.7 342.299 1016.75 342.744 1015.93 343.635L1014.42 342.334C1015.54 340.998 1016.99 340.33 1018.76 340.33C1020.32 340.33 1021.43 340.705 1022.08 341.455C1022.75 342.193 1023.09 343.248 1023.09 344.619V351H1020.64V349.822C1020.42 350.232 1020.05 350.584 1019.53 350.877C1019.03 351.17 1018.45 351.316 1017.79 351.316C1016.67 351.316 1015.78 351.029 1015.12 350.455C1014.47 349.881 1014.14 349.137 1014.14 348.223ZM1025.61 351V340.646H1028.03V341.789C1028.21 341.438 1028.53 341.109 1028.98 340.805C1029.45 340.488 1030.05 340.33 1030.79 340.33C1033.05 340.33 1034.19 341.672 1034.19 344.355V351H1031.69V344.654C1031.69 343.857 1031.57 343.295 1031.32 342.967C1031.07 342.639 1030.71 342.475 1030.23 342.475C1029.62 342.475 1029.12 342.721 1028.72 343.213C1028.32 343.705 1028.12 344.32 1028.12 345.059V351H1025.61ZM1036.16 345.814C1036.16 344.104 1036.57 342.762 1037.39 341.789C1038.23 340.816 1039.29 340.33 1040.59 340.33C1041.14 340.33 1041.63 340.459 1042.05 340.717C1042.48 340.963 1042.82 341.256 1043.05 341.596V336.393H1045.57V351H1043.12V349.822C1042.9 350.232 1042.56 350.584 1042.09 350.877C1041.63 351.17 1041.13 351.316 1040.57 351.316C1040.02 351.316 1039.5 351.211 1038.99 351C1038.49 350.801 1038.02 350.496 1037.59 350.086C1037.15 349.664 1036.81 349.09 1036.55 348.363C1036.29 347.625 1036.16 346.775 1036.16 345.814ZM1038.75 345.814C1038.75 346.893 1038.94 347.725 1039.33 348.311C1039.73 348.885 1040.26 349.172 1040.94 349.172C1041.59 349.172 1042.1 348.873 1042.49 348.275C1042.89 347.678 1043.09 346.857 1043.09 345.814C1043.09 344.818 1042.9 344.016 1042.53 343.406C1042.15 342.785 1041.62 342.475 1040.94 342.475C1040.23 342.475 1039.68 342.779 1039.31 343.389C1038.93 343.998 1038.75 344.807 1038.75 345.814ZM1048.44 339.328V336.656H1051.04V339.328H1048.44ZM1048.51 351V340.646H1050.99V351H1048.51ZM1053.27 345.814C1053.27 344.104 1053.68 342.762 1054.5 341.789C1055.33 340.816 1056.39 340.33 1057.7 340.33C1058.25 340.33 1058.73 340.459 1059.15 340.717C1059.59 340.963 1059.92 341.256 1060.16 341.596V336.393H1062.67V351H1060.23V349.822C1060 350.232 1059.66 350.584 1059.19 350.877C1058.73 351.17 1058.23 351.316 1057.68 351.316C1057.13 351.316 1056.6 351.211 1056.1 351C1055.59 350.801 1055.12 350.496 1054.69 350.086C1054.26 349.664 1053.91 349.09 1053.65 348.363C1053.39 347.625 1053.27 346.775 1053.27 345.814ZM1055.85 345.814C1055.85 346.893 1056.04 347.725 1056.43 348.311C1056.83 348.885 1057.37 349.172 1058.05 349.172C1058.69 349.172 1059.21 348.873 1059.59 348.275C1059.99 347.678 1060.19 346.857 1060.19 345.814C1060.19 344.818 1060 344.016 1059.63 343.406C1059.25 342.785 1058.73 342.475 1058.05 342.475C1057.33 342.475 1056.79 342.779 1056.41 343.389C1056.04 343.998 1055.85 344.807 1055.85 345.814ZM1067.41 348.012C1067.41 348.352 1067.54 348.639 1067.79 348.873C1068.06 349.107 1068.42 349.225 1068.87 349.225C1069.53 349.225 1070.1 349.002 1070.57 348.557C1071.04 348.111 1071.27 347.525 1071.27 346.799V345.99C1070.81 346.107 1070.21 346.219 1069.48 346.324C1068.1 346.547 1067.41 347.109 1067.41 348.012ZM1064.84 348.223C1064.84 347.273 1065.2 346.494 1065.91 345.885C1066.64 345.275 1067.72 344.865 1069.15 344.654C1070.27 344.467 1070.98 344.332 1071.27 344.25V343.705C1071.27 343.248 1071.11 342.902 1070.78 342.668C1070.45 342.422 1070.02 342.299 1069.48 342.299C1068.4 342.299 1067.45 342.744 1066.63 343.635L1065.12 342.334C1066.25 340.998 1067.69 340.33 1069.46 340.33C1071.02 340.33 1072.13 340.705 1072.79 341.455C1073.45 342.193 1073.79 343.248 1073.79 344.619V351H1071.34V349.822C1071.12 350.232 1070.75 350.584 1070.24 350.877C1069.73 351.17 1069.15 351.316 1068.5 351.316C1067.37 351.316 1066.48 351.029 1065.82 350.455C1065.17 349.881 1064.84 349.137 1064.84 348.223ZM1075.45 342.773V340.646H1077V337.641H1079.49V340.646H1081.74V342.773H1079.49V347.59C1079.49 348.434 1079.86 348.855 1080.6 348.855H1081.76V351H1080.28C1079.27 351 1078.47 350.742 1077.87 350.227C1077.29 349.711 1077 348.885 1077 347.748V342.773H1075.45ZM1083.24 345.779C1083.24 344.104 1083.7 342.779 1084.61 341.807C1085.54 340.822 1086.7 340.33 1088.1 340.33C1089.45 340.33 1090.59 340.828 1091.49 341.824C1092.4 342.82 1092.86 344.121 1092.86 345.727C1092.86 346.16 1092.85 346.482 1092.82 346.693H1085.79C1085.79 347.408 1086.01 348.023 1086.44 348.539C1086.89 349.055 1087.49 349.312 1088.25 349.312C1088.79 349.312 1089.27 349.178 1089.68 348.908C1090.1 348.627 1090.42 348.275 1090.63 347.854L1092.72 348.592C1092.39 349.365 1091.83 350.016 1091.05 350.543C1090.28 351.059 1089.32 351.316 1088.18 351.316C1086.73 351.316 1085.54 350.818 1084.61 349.822C1083.7 348.814 1083.24 347.467 1083.24 345.779ZM1085.81 344.953H1090.31C1090.31 344.227 1090.11 343.605 1089.71 343.09C1089.33 342.574 1088.79 342.316 1088.1 342.316C1087.39 342.316 1086.84 342.58 1086.43 343.107C1086.03 343.623 1085.82 344.238 1085.81 344.953ZM1094.17 348.803L1095.94 347.748C1096.65 348.779 1097.56 349.295 1098.67 349.295C1099.17 349.295 1099.56 349.195 1099.85 348.996C1100.14 348.785 1100.29 348.516 1100.29 348.188C1100.29 348.082 1100.27 347.988 1100.23 347.906C1100.21 347.812 1100.16 347.725 1100.09 347.643C1100.02 347.561 1099.96 347.49 1099.9 347.432C1099.84 347.373 1099.74 347.309 1099.6 347.238C1099.47 347.168 1099.37 347.115 1099.28 347.08C1099.2 347.033 1099.07 346.98 1098.9 346.922C1098.72 346.852 1098.59 346.805 1098.49 346.781C1098.4 346.746 1098.25 346.699 1098.04 346.641C1097.82 346.57 1097.67 346.518 1097.58 346.482C1096.69 346.189 1095.97 345.814 1095.43 345.357C1094.89 344.9 1094.63 344.238 1094.63 343.371C1094.63 342.445 1095.02 341.707 1095.82 341.156C1096.62 340.605 1097.57 340.33 1098.69 340.33C1099.55 340.33 1100.37 340.553 1101.13 340.998C1101.89 341.443 1102.46 342.023 1102.83 342.738L1101.18 343.74C1100.46 342.814 1099.63 342.352 1098.7 342.352C1098.22 342.352 1097.85 342.451 1097.58 342.65C1097.32 342.838 1097.19 343.09 1097.19 343.406C1097.19 343.512 1097.2 343.611 1097.23 343.705C1097.26 343.799 1097.31 343.887 1097.39 343.969C1097.46 344.051 1097.52 344.127 1097.58 344.197C1097.65 344.256 1097.74 344.32 1097.86 344.391C1097.99 344.461 1098.09 344.52 1098.18 344.566C1098.27 344.602 1098.4 344.648 1098.56 344.707C1098.73 344.766 1098.86 344.812 1098.95 344.848C1099.04 344.871 1099.18 344.918 1099.37 344.988C1099.56 345.047 1099.69 345.088 1099.78 345.111C1101.83 345.791 1102.85 346.822 1102.85 348.205C1102.85 349.072 1102.49 349.811 1101.78 350.42C1101.06 351.018 1100.05 351.316 1098.74 351.316C1097.72 351.316 1096.81 351.088 1096 350.631C1095.2 350.174 1094.59 349.564 1094.17 348.803Z" fill="black"/>
<rect x="402" y="1" width="366" height="480" rx="4" fill="#F9F9F9" stroke="url(#paint1_linear)" stroke-width="2"/>
<path d="M531.855 319V304.85H541.277V307.1H534.474V310.58H540.609V312.795H534.474V316.768H541.452V319H531.855ZM542.445 319L546.137 313.709L542.621 308.646H545.679L546.875 310.756C546.945 310.885 547.056 311.096 547.209 311.389C547.373 311.67 547.49 311.875 547.56 312.004H547.613C547.648 311.945 547.748 311.764 547.912 311.459C548.088 311.143 548.217 310.908 548.299 310.756L549.494 308.646H552.553L549.054 313.709L552.746 319H549.758L548.387 316.697C548 316.029 547.742 315.578 547.613 315.344H547.56C547.349 315.73 547.092 316.182 546.787 316.697L545.416 319H542.445ZM556.956 313.814C556.956 314.846 557.143 315.666 557.518 316.275C557.905 316.873 558.444 317.172 559.135 317.172C559.791 317.172 560.319 316.885 560.717 316.311C561.116 315.725 561.315 314.893 561.315 313.814C561.315 312.783 561.122 311.969 560.735 311.371C560.348 310.773 559.815 310.475 559.135 310.475C558.444 310.475 557.905 310.785 557.518 311.406C557.143 312.016 556.956 312.818 556.956 313.814ZM554.495 323.148V308.646H556.903V309.807C557.547 308.822 558.409 308.33 559.487 308.33C560.752 308.33 561.801 308.822 562.633 309.807C563.477 310.791 563.899 312.127 563.899 313.814C563.899 314.775 563.764 315.625 563.495 316.363C563.225 317.09 562.868 317.664 562.422 318.086C561.977 318.496 561.502 318.801 560.998 319C560.506 319.211 560.002 319.316 559.487 319.316C558.854 319.316 558.327 319.182 557.905 318.912C557.495 318.631 557.19 318.314 556.991 317.963V323.148H554.495ZM566.175 319V304.393H568.689V319H566.175ZM573.549 313.832C573.549 315.004 573.771 315.854 574.217 316.381C574.674 316.908 575.195 317.172 575.781 317.172C576.355 317.172 576.871 316.908 577.328 316.381C577.797 315.842 578.031 314.992 578.031 313.832C578.031 312.66 577.802 311.811 577.345 311.283C576.888 310.744 576.367 310.475 575.781 310.475C575.195 310.475 574.674 310.738 574.217 311.266C573.771 311.793 573.549 312.648 573.549 313.832ZM570.965 313.832C570.965 312.297 571.369 310.996 572.177 309.93C572.986 308.863 574.187 308.33 575.781 308.33C576.859 308.33 577.773 308.6 578.523 309.139C579.273 309.678 579.806 310.352 580.123 311.16C580.439 311.957 580.597 312.848 580.597 313.832C580.597 314.301 580.556 314.77 580.474 315.238C580.392 315.695 580.234 316.176 580 316.68C579.777 317.184 579.49 317.629 579.138 318.016C578.799 318.391 578.336 318.701 577.75 318.947C577.176 319.193 576.519 319.316 575.781 319.316C575.054 319.316 574.404 319.199 573.83 318.965C573.256 318.73 572.793 318.432 572.441 318.068C572.09 317.693 571.797 317.26 571.562 316.768C571.34 316.264 571.181 315.777 571.088 315.309C571.006 314.828 570.965 314.336 570.965 313.832ZM582.698 319V308.646H585.106V309.631C585.317 309.279 585.627 308.975 586.037 308.717C586.459 308.459 586.946 308.33 587.496 308.33C588.036 308.33 588.475 308.395 588.815 308.523V310.826C588.405 310.697 587.971 310.633 587.514 310.633C586.764 310.633 586.19 310.926 585.791 311.512C585.405 312.098 585.211 312.883 585.211 313.867V319H582.698ZM589.737 313.779C589.737 312.104 590.194 310.779 591.108 309.807C592.034 308.822 593.194 308.33 594.589 308.33C595.948 308.33 597.079 308.828 597.981 309.824C598.896 310.82 599.353 312.121 599.353 313.727C599.353 314.16 599.341 314.482 599.317 314.693H592.286C592.286 315.408 592.503 316.023 592.937 316.539C593.382 317.055 593.985 317.312 594.747 317.312C595.286 317.312 595.761 317.178 596.171 316.908C596.593 316.627 596.909 316.275 597.12 315.854L599.212 316.592C598.884 317.365 598.327 318.016 597.542 318.543C596.769 319.059 595.813 319.316 594.677 319.316C593.224 319.316 592.034 318.818 591.108 317.822C590.194 316.814 589.737 315.467 589.737 313.779ZM592.304 312.953H596.804C596.804 312.227 596.604 311.605 596.206 311.09C595.819 310.574 595.28 310.316 594.589 310.316C593.886 310.316 593.329 310.58 592.919 311.107C592.521 311.623 592.315 312.238 592.304 312.953ZM608.194 313.832C608.194 315.004 608.416 315.854 608.862 316.381C609.319 316.908 609.84 317.172 610.426 317.172C611 317.172 611.516 316.908 611.973 316.381C612.442 315.842 612.676 314.992 612.676 313.832C612.676 312.66 612.448 311.811 611.991 311.283C611.533 310.744 611.012 310.475 610.426 310.475C609.84 310.475 609.319 310.738 608.862 311.266C608.416 311.793 608.194 312.648 608.194 313.832ZM605.61 313.832C605.61 312.297 606.014 310.996 606.823 309.93C607.631 308.863 608.832 308.33 610.426 308.33C611.504 308.33 612.418 308.6 613.168 309.139C613.918 309.678 614.451 310.352 614.768 311.16C615.084 311.957 615.242 312.848 615.242 313.832C615.242 314.301 615.201 314.77 615.119 315.238C615.037 315.695 614.879 316.176 614.645 316.68C614.422 317.184 614.135 317.629 613.783 318.016C613.444 318.391 612.981 318.701 612.395 318.947C611.821 319.193 611.164 319.316 610.426 319.316C609.699 319.316 609.049 319.199 608.475 318.965C607.901 318.73 607.438 318.432 607.086 318.068C606.735 317.693 606.442 317.26 606.207 316.768C605.985 316.264 605.826 315.777 605.733 315.309C605.651 314.828 605.61 314.336 605.61 313.832ZM617.202 315.203V308.646H619.733V314.922C619.733 316.422 620.243 317.172 621.263 317.172C621.884 317.172 622.37 316.902 622.722 316.363C623.073 315.812 623.249 315.162 623.249 314.412V308.646H625.745V319H623.337V317.928H623.302C623.114 318.291 622.792 318.613 622.335 318.895C621.89 319.176 621.35 319.316 620.718 319.316C620.319 319.316 619.933 319.258 619.558 319.141C619.194 319.023 618.825 318.83 618.45 318.561C618.075 318.279 617.77 317.852 617.536 317.277C617.313 316.703 617.202 316.012 617.202 315.203ZM628.425 319V308.646H630.834V309.631C631.044 309.279 631.355 308.975 631.765 308.717C632.187 308.459 632.673 308.33 633.224 308.33C633.763 308.33 634.203 308.395 634.543 308.523V310.826C634.132 310.697 633.699 310.633 633.242 310.633C632.492 310.633 631.918 310.926 631.519 311.512C631.132 312.098 630.939 312.883 630.939 313.867V319H628.425ZM457.778 351V340.646H460.187V341.631C460.397 341.279 460.708 340.975 461.118 340.717C461.54 340.459 462.026 340.33 462.577 340.33C463.116 340.33 463.556 340.395 463.896 340.523V342.826C463.485 342.697 463.052 342.633 462.595 342.633C461.845 342.633 461.271 342.926 460.872 343.512C460.485 344.098 460.292 344.883 460.292 345.867V351H457.778ZM464.818 345.779C464.818 344.104 465.275 342.779 466.189 341.807C467.115 340.822 468.275 340.33 469.67 340.33C471.029 340.33 472.16 340.828 473.062 341.824C473.976 342.82 474.433 344.121 474.433 345.727C474.433 346.16 474.422 346.482 474.398 346.693H467.367C467.367 347.408 467.584 348.023 468.017 348.539C468.463 349.055 469.066 349.312 469.828 349.312C470.367 349.312 470.841 349.178 471.252 348.908C471.673 348.627 471.99 348.275 472.201 347.854L474.293 348.592C473.964 349.365 473.408 350.016 472.623 350.543C471.849 351.059 470.894 351.316 469.757 351.316C468.304 351.316 467.115 350.818 466.189 349.822C465.275 348.814 464.818 347.467 464.818 345.779ZM467.384 344.953H471.884C471.884 344.227 471.685 343.605 471.287 343.09C470.9 342.574 470.361 342.316 469.67 342.316C468.966 342.316 468.41 342.58 468 343.107C467.601 343.623 467.396 344.238 467.384 344.953ZM475.936 345.832C475.936 344.145 476.387 342.809 477.289 341.824C478.192 340.828 479.352 340.33 480.77 340.33C481.836 340.33 482.727 340.658 483.442 341.314C484.157 341.959 484.602 342.691 484.778 343.512L482.651 344.092C482.522 343.658 482.299 343.283 481.983 342.967C481.666 342.639 481.274 342.475 480.805 342.475C480.067 342.475 479.498 342.797 479.1 343.441C478.713 344.074 478.52 344.871 478.52 345.832C478.52 346.898 478.737 347.725 479.17 348.311C479.604 348.885 480.149 349.172 480.805 349.172C481.321 349.172 481.766 348.996 482.141 348.645C482.516 348.281 482.768 347.871 482.897 347.414L485.024 348.012C484.813 348.879 484.315 349.646 483.53 350.314C482.744 350.982 481.824 351.316 480.77 351.316C479.34 351.316 478.174 350.818 477.272 349.822C476.381 348.826 475.936 347.496 475.936 345.832ZM488.882 345.832C488.882 347.004 489.104 347.854 489.55 348.381C490.007 348.908 490.528 349.172 491.114 349.172C491.688 349.172 492.204 348.908 492.661 348.381C493.13 347.842 493.364 346.992 493.364 345.832C493.364 344.66 493.136 343.811 492.679 343.283C492.222 342.744 491.7 342.475 491.114 342.475C490.528 342.475 490.007 342.738 489.55 343.266C489.104 343.793 488.882 344.648 488.882 345.832ZM486.298 345.832C486.298 344.297 486.702 342.996 487.511 341.93C488.319 340.863 489.52 340.33 491.114 340.33C492.192 340.33 493.106 340.6 493.856 341.139C494.606 341.678 495.14 342.352 495.456 343.16C495.772 343.957 495.931 344.848 495.931 345.832C495.931 346.301 495.89 346.77 495.808 347.238C495.726 347.695 495.567 348.176 495.333 348.68C495.11 349.184 494.823 349.629 494.472 350.016C494.132 350.391 493.669 350.701 493.083 350.947C492.509 351.193 491.852 351.316 491.114 351.316C490.388 351.316 489.737 351.199 489.163 350.965C488.589 350.73 488.126 350.432 487.774 350.068C487.423 349.693 487.13 349.26 486.895 348.768C486.673 348.264 486.515 347.777 486.421 347.309C486.339 346.828 486.298 346.336 486.298 345.832ZM498.031 351V340.646H500.457V341.736C500.644 341.42 500.961 341.109 501.406 340.805C501.863 340.488 502.402 340.33 503.023 340.33C504.136 340.33 504.962 340.893 505.502 342.018C505.63 341.795 505.789 341.578 505.976 341.367C506.175 341.145 506.509 340.916 506.978 340.682C507.459 340.447 507.986 340.33 508.56 340.33C510.716 340.33 511.794 341.672 511.794 344.355V351H509.263V344.408C509.263 343.764 509.169 343.283 508.982 342.967C508.794 342.639 508.472 342.475 508.015 342.475C507.453 342.475 506.996 342.715 506.644 343.195C506.304 343.664 506.134 344.232 506.134 344.9V351H503.656V344.338C503.656 343.096 503.24 342.475 502.408 342.475C501.798 342.475 501.336 342.697 501.019 343.143C500.703 343.576 500.544 344.156 500.544 344.883V351H498.031ZM514.317 351V340.646H516.742V341.736C516.93 341.42 517.246 341.109 517.692 340.805C518.149 340.488 518.688 340.33 519.309 340.33C520.422 340.33 521.248 340.893 521.787 342.018C521.916 341.795 522.074 341.578 522.262 341.367C522.461 341.145 522.795 340.916 523.264 340.682C523.744 340.447 524.272 340.33 524.846 340.33C527.002 340.33 528.08 341.672 528.08 344.355V351H525.549V344.408C525.549 343.764 525.455 343.283 525.268 342.967C525.08 342.639 524.758 342.475 524.301 342.475C523.738 342.475 523.281 342.715 522.93 343.195C522.59 343.664 522.42 344.232 522.42 344.9V351H519.942V344.338C519.942 343.096 519.526 342.475 518.694 342.475C518.084 342.475 517.621 342.697 517.305 343.143C516.988 343.576 516.83 344.156 516.83 344.883V351H514.317ZM530.04 345.779C530.04 344.104 530.497 342.779 531.411 341.807C532.337 340.822 533.497 340.33 534.891 340.33C536.251 340.33 537.382 340.828 538.284 341.824C539.198 342.82 539.655 344.121 539.655 345.727C539.655 346.16 539.643 346.482 539.62 346.693H532.589C532.589 347.408 532.806 348.023 533.239 348.539C533.684 349.055 534.288 349.312 535.05 349.312C535.589 349.312 536.063 349.178 536.473 348.908C536.895 348.627 537.212 348.275 537.423 347.854L539.514 348.592C539.186 349.365 538.63 350.016 537.845 350.543C537.071 351.059 536.116 351.316 534.979 351.316C533.526 351.316 532.337 350.818 531.411 349.822C530.497 348.814 530.04 347.467 530.04 345.779ZM532.606 344.953H537.106C537.106 344.227 536.907 343.605 536.509 343.09C536.122 342.574 535.583 342.316 534.891 342.316C534.188 342.316 533.632 342.58 533.222 343.107C532.823 343.623 532.618 344.238 532.606 344.953ZM541.72 351V340.646H544.146V341.789C544.322 341.438 544.638 341.109 545.095 340.805C545.564 340.488 546.167 340.33 546.906 340.33C549.167 340.33 550.298 341.672 550.298 344.355V351H547.802V344.654C547.802 343.857 547.679 343.295 547.433 342.967C547.187 342.639 546.824 342.475 546.343 342.475C545.734 342.475 545.23 342.721 544.832 343.213C544.433 343.705 544.234 344.32 544.234 345.059V351H541.72ZM552.276 345.814C552.276 344.104 552.686 342.762 553.506 341.789C554.338 340.816 555.404 340.33 556.705 340.33C557.256 340.33 557.742 340.459 558.164 340.717C558.598 340.963 558.932 341.256 559.166 341.596V336.393H561.68V351H559.236V349.822C559.014 350.232 558.668 350.584 558.199 350.877C557.742 351.17 557.238 351.316 556.688 351.316C556.137 351.316 555.609 351.211 555.106 351C554.602 350.801 554.133 350.496 553.699 350.086C553.266 349.664 552.92 349.09 552.662 348.363C552.404 347.625 552.276 346.775 552.276 345.814ZM554.859 345.814C554.859 346.893 555.053 347.725 555.44 348.311C555.838 348.885 556.377 349.172 557.057 349.172C557.701 349.172 558.217 348.873 558.604 348.275C559.002 347.678 559.201 346.857 559.201 345.814C559.201 344.818 559.014 344.016 558.639 343.406C558.264 342.785 557.736 342.475 557.057 342.475C556.342 342.475 555.797 342.779 555.422 343.389C555.047 343.998 554.859 344.807 554.859 345.814ZM563.885 345.779C563.885 344.104 564.343 342.779 565.257 341.807C566.182 340.822 567.343 340.33 568.737 340.33C570.096 340.33 571.227 340.828 572.13 341.824C573.044 342.82 573.501 344.121 573.501 345.727C573.501 346.16 573.489 346.482 573.466 346.693H566.434C566.434 347.408 566.651 348.023 567.085 348.539C567.53 349.055 568.134 349.312 568.895 349.312C569.434 349.312 569.909 349.178 570.319 348.908C570.741 348.627 571.057 348.275 571.268 347.854L573.36 348.592C573.032 349.365 572.475 350.016 571.69 350.543C570.917 351.059 569.962 351.316 568.825 351.316C567.372 351.316 566.182 350.818 565.257 349.822C564.343 348.814 563.885 347.467 563.885 345.779ZM566.452 344.953H570.952C570.952 344.227 570.753 343.605 570.354 343.09C569.968 342.574 569.428 342.316 568.737 342.316C568.034 342.316 567.477 342.58 567.067 343.107C566.669 343.623 566.464 344.238 566.452 344.953ZM575.003 345.814C575.003 344.104 575.413 342.762 576.234 341.789C577.066 340.816 578.132 340.33 579.433 340.33C579.984 340.33 580.47 340.459 580.892 340.717C581.326 340.963 581.66 341.256 581.894 341.596V336.393H584.408V351H581.964V349.822C581.742 350.232 581.396 350.584 580.927 350.877C580.47 351.17 579.966 351.316 579.415 351.316C578.865 351.316 578.337 351.211 577.833 351C577.329 350.801 576.861 350.496 576.427 350.086C575.994 349.664 575.648 349.09 575.39 348.363C575.132 347.625 575.003 346.775 575.003 345.814ZM577.587 345.814C577.587 346.893 577.781 347.725 578.167 348.311C578.566 348.885 579.105 349.172 579.785 349.172C580.429 349.172 580.945 348.873 581.331 348.275C581.73 347.678 581.929 346.857 581.929 345.814C581.929 344.818 581.742 344.016 581.367 343.406C580.992 342.785 580.464 342.475 579.785 342.475C579.07 342.475 578.525 342.779 578.15 343.389C577.775 343.998 577.587 344.807 577.587 345.814ZM594.497 345.814C594.497 346.846 594.684 347.666 595.059 348.275C595.446 348.873 595.985 349.172 596.676 349.172C597.333 349.172 597.86 348.885 598.258 348.311C598.657 347.725 598.856 346.893 598.856 345.814C598.856 344.783 598.663 343.969 598.276 343.371C597.889 342.773 597.356 342.475 596.676 342.475C595.985 342.475 595.446 342.785 595.059 343.406C594.684 344.016 594.497 344.818 594.497 345.814ZM592.036 355.148V340.646H594.444V341.807C595.089 340.822 595.95 340.33 597.028 340.33C598.294 340.33 599.342 340.822 600.174 341.807C601.018 342.791 601.44 344.127 601.44 345.814C601.44 346.775 601.305 347.625 601.036 348.363C600.766 349.09 600.409 349.664 599.964 350.086C599.518 350.496 599.044 350.801 598.54 351C598.048 351.211 597.544 351.316 597.028 351.316C596.395 351.316 595.868 351.182 595.446 350.912C595.036 350.631 594.731 350.314 594.532 349.963V355.148H592.036ZM603.54 351V340.646H605.949V341.631C606.159 341.279 606.47 340.975 606.88 340.717C607.302 340.459 607.788 340.33 608.339 340.33C608.878 340.33 609.318 340.395 609.658 340.523V342.826C609.247 342.697 608.814 342.633 608.357 342.633C607.607 342.633 607.033 342.926 606.634 343.512C606.247 344.098 606.054 344.883 606.054 345.867V351H603.54ZM613.164 345.832C613.164 347.004 613.387 347.854 613.832 348.381C614.289 348.908 614.811 349.172 615.396 349.172C615.971 349.172 616.486 348.908 616.943 348.381C617.412 347.842 617.646 346.992 617.646 345.832C617.646 344.66 617.418 343.811 616.961 343.283C616.504 342.744 615.982 342.475 615.396 342.475C614.811 342.475 614.289 342.738 613.832 343.266C613.387 343.793 613.164 344.648 613.164 345.832ZM610.58 345.832C610.58 344.297 610.984 342.996 611.793 341.93C612.602 340.863 613.803 340.33 615.396 340.33C616.475 340.33 617.389 340.6 618.139 341.139C618.889 341.678 619.422 342.352 619.738 343.16C620.055 343.957 620.213 344.848 620.213 345.832C620.213 346.301 620.172 346.77 620.09 347.238C620.008 347.695 619.85 348.176 619.615 348.68C619.393 349.184 619.105 349.629 618.754 350.016C618.414 350.391 617.951 350.701 617.365 350.947C616.791 351.193 616.135 351.316 615.396 351.316C614.67 351.316 614.019 351.199 613.445 350.965C612.871 350.73 612.408 350.432 612.057 350.068C611.705 349.693 611.412 349.26 611.178 348.768C610.955 348.264 610.797 347.777 610.703 347.309C610.621 346.828 610.58 346.336 610.58 345.832ZM621.575 342.773V340.646H623.104V339.645C623.104 338.578 623.374 337.77 623.913 337.219C624.452 336.668 625.213 336.393 626.198 336.393H627.938V338.537H626.567C626.239 338.537 625.999 338.637 625.846 338.836C625.706 339.035 625.635 339.363 625.635 339.82V340.646H627.692V342.773H625.635V351H623.104V342.773H621.575ZM628.861 345.779C628.861 344.104 629.318 342.779 630.232 341.807C631.157 340.822 632.318 340.33 633.712 340.33C635.072 340.33 636.202 340.828 637.105 341.824C638.019 342.82 638.476 344.121 638.476 345.727C638.476 346.16 638.464 346.482 638.441 346.693H631.409C631.409 347.408 631.626 348.023 632.06 348.539C632.505 349.055 633.109 349.312 633.87 349.312C634.409 349.312 634.884 349.178 635.294 348.908C635.716 348.627 636.032 348.275 636.243 347.854L638.335 348.592C638.007 349.365 637.45 350.016 636.665 350.543C635.892 351.059 634.937 351.316 633.8 351.316C632.347 351.316 631.157 350.818 630.232 349.822C629.318 348.814 628.861 347.467 628.861 345.779ZM631.427 344.953H635.927C635.927 344.227 635.728 343.605 635.329 343.09C634.943 342.574 634.404 342.316 633.712 342.316C633.009 342.316 632.452 342.58 632.042 343.107C631.644 343.623 631.439 344.238 631.427 344.953ZM639.785 348.803L641.56 347.748C642.264 348.779 643.172 349.295 644.285 349.295C644.789 349.295 645.182 349.195 645.463 348.996C645.756 348.785 645.902 348.516 645.902 348.188C645.902 348.082 645.885 347.988 645.849 347.906C645.826 347.812 645.779 347.725 645.709 347.643C645.639 347.561 645.574 347.49 645.516 347.432C645.457 347.373 645.357 347.309 645.217 347.238C645.088 347.168 644.982 347.115 644.9 347.08C644.818 347.033 644.689 346.98 644.514 346.922C644.338 346.852 644.203 346.805 644.109 346.781C644.016 346.746 643.863 346.699 643.652 346.641C643.441 346.57 643.289 346.518 643.195 346.482C642.305 346.189 641.59 345.814 641.051 345.357C640.512 344.9 640.242 344.238 640.242 343.371C640.242 342.445 640.641 341.707 641.437 341.156C642.234 340.605 643.189 340.33 644.303 340.33C645.17 340.33 645.984 340.553 646.746 340.998C647.508 341.443 648.076 342.023 648.451 342.738L646.799 343.74C646.072 342.814 645.246 342.352 644.32 342.352C643.84 342.352 643.465 342.451 643.195 342.65C642.937 342.838 642.808 343.09 642.808 343.406C642.808 343.512 642.82 343.611 642.844 343.705C642.879 343.799 642.932 343.887 643.002 343.969C643.072 344.051 643.137 344.127 643.195 344.197C643.266 344.256 643.359 344.32 643.476 344.391C643.605 344.461 643.711 344.52 643.793 344.566C643.887 344.602 644.016 344.648 644.18 344.707C644.344 344.766 644.473 344.812 644.566 344.848C644.66 344.871 644.801 344.918 644.988 344.988C645.176 345.047 645.31 345.088 645.392 345.111C647.443 345.791 648.469 346.822 648.469 348.205C648.469 349.072 648.111 349.811 647.396 350.42C646.682 351.018 645.668 351.316 644.355 351.316C643.336 351.316 642.422 351.088 641.613 350.631C640.816 350.174 640.207 349.564 639.785 348.803ZM649.725 348.803L651.501 347.748C652.204 348.779 653.112 349.295 654.225 349.295C654.729 349.295 655.122 349.195 655.403 348.996C655.696 348.785 655.842 348.516 655.842 348.188C655.842 348.082 655.825 347.988 655.79 347.906C655.766 347.812 655.719 347.725 655.649 347.643C655.579 347.561 655.514 347.49 655.456 347.432C655.397 347.373 655.297 347.309 655.157 347.238C655.028 347.168 654.922 347.115 654.84 347.08C654.758 347.033 654.629 346.98 654.454 346.922C654.278 346.852 654.143 346.805 654.049 346.781C653.956 346.746 653.803 346.699 653.592 346.641C653.381 346.57 653.229 346.518 653.135 346.482C652.245 346.189 651.53 345.814 650.991 345.357C650.452 344.9 650.182 344.238 650.182 343.371C650.182 342.445 650.581 341.707 651.377 341.156C652.174 340.605 653.129 340.33 654.243 340.33C655.11 340.33 655.924 340.553 656.686 340.998C657.448 341.443 658.016 342.023 658.391 342.738L656.739 343.74C656.012 342.814 655.186 342.352 654.26 342.352C653.78 342.352 653.405 342.451 653.135 342.65C652.877 342.838 652.749 343.09 652.749 343.406C652.749 343.512 652.76 343.611 652.784 343.705C652.819 343.799 652.872 343.887 652.942 343.969C653.012 344.051 653.077 344.127 653.135 344.197C653.206 344.256 653.299 344.32 653.417 344.391C653.545 344.461 653.651 344.52 653.733 344.566C653.827 344.602 653.956 344.648 654.12 344.707C654.284 344.766 654.413 344.812 654.506 344.848C654.6 344.871 654.741 344.918 654.928 344.988C655.116 345.047 655.251 345.088 655.333 345.111C657.383 345.791 658.409 346.822 658.409 348.205C658.409 349.072 658.051 349.811 657.336 350.42C656.622 351.018 655.608 351.316 654.295 351.316C653.276 351.316 652.362 351.088 651.553 350.631C650.756 350.174 650.147 349.564 649.725 348.803ZM660.527 339.328V336.656H663.128V339.328H660.527ZM660.597 351V340.646H663.075V351H660.597ZM667.935 345.832C667.935 347.004 668.158 347.854 668.603 348.381C669.06 348.908 669.582 349.172 670.168 349.172C670.742 349.172 671.258 348.908 671.715 348.381C672.183 347.842 672.418 346.992 672.418 345.832C672.418 344.66 672.189 343.811 671.732 343.283C671.275 342.744 670.754 342.475 670.168 342.475C669.582 342.475 669.06 342.738 668.603 343.266C668.158 343.793 667.935 344.648 667.935 345.832ZM665.351 345.832C665.351 344.297 665.756 342.996 666.564 341.93C667.373 340.863 668.574 340.33 670.168 340.33C671.246 340.33 672.16 340.6 672.91 341.139C673.66 341.678 674.193 342.352 674.51 343.16C674.826 343.957 674.984 344.848 674.984 345.832C674.984 346.301 674.943 346.77 674.861 347.238C674.779 347.695 674.621 348.176 674.387 348.68C674.164 349.184 673.877 349.629 673.525 350.016C673.185 350.391 672.722 350.701 672.137 350.947C671.562 351.193 670.906 351.316 670.168 351.316C669.441 351.316 668.791 351.199 668.217 350.965C667.642 350.73 667.179 350.432 666.828 350.068C666.476 349.693 666.183 349.26 665.949 348.768C665.726 348.264 665.568 347.777 665.474 347.309C665.392 346.828 665.351 346.336 665.351 345.832ZM677.084 351V340.646H679.51V341.789C679.686 341.438 680.002 341.109 680.459 340.805C680.928 340.488 681.532 340.33 682.27 340.33C684.532 340.33 685.663 341.672 685.663 344.355V351H683.166V344.654C683.166 343.857 683.043 343.295 682.797 342.967C682.551 342.639 682.188 342.475 681.707 342.475C681.098 342.475 680.594 342.721 680.196 343.213C679.797 343.705 679.598 344.32 679.598 345.059V351H677.084ZM690.171 348.012C690.171 348.352 690.3 348.639 690.558 348.873C690.827 349.107 691.185 349.225 691.63 349.225C692.298 349.225 692.866 349.002 693.335 348.557C693.804 348.111 694.038 347.525 694.038 346.799V345.99C693.569 346.107 692.972 346.219 692.245 346.324C690.862 346.547 690.171 347.109 690.171 348.012ZM687.605 348.223C687.605 347.273 687.962 346.494 688.677 345.885C689.403 345.275 690.482 344.865 691.911 344.654C693.036 344.467 693.745 344.332 694.038 344.25V343.705C694.038 343.248 693.874 342.902 693.546 342.668C693.218 342.422 692.784 342.299 692.245 342.299C691.167 342.299 690.218 342.744 689.398 343.635L687.886 342.334C689.011 340.998 690.458 340.33 692.228 340.33C693.786 340.33 694.894 340.705 695.55 341.455C696.218 342.193 696.552 343.248 696.552 344.619V351H694.108V349.822C693.886 350.232 693.517 350.584 693.001 350.877C692.497 351.17 691.917 351.316 691.261 351.316C690.136 351.316 689.245 351.029 688.589 350.455C687.933 349.881 687.605 349.137 687.605 348.223ZM699.25 351V336.393H701.763V351H699.25ZM703.846 348.803L705.621 347.748C706.325 348.779 707.233 349.295 708.346 349.295C708.85 349.295 709.243 349.195 709.524 348.996C709.817 348.785 709.963 348.516 709.963 348.188C709.963 348.082 709.946 347.988 709.911 347.906C709.887 347.812 709.84 347.725 709.77 347.643C709.7 347.561 709.635 347.49 709.577 347.432C709.518 347.373 709.418 347.309 709.278 347.238C709.149 347.168 709.043 347.115 708.961 347.08C708.879 347.033 708.75 346.98 708.575 346.922C708.399 346.852 708.264 346.805 708.17 346.781C708.077 346.746 707.924 346.699 707.713 346.641C707.502 346.57 707.35 346.518 707.256 346.482C706.366 346.189 705.651 345.814 705.112 345.357C704.573 344.9 704.303 344.238 704.303 343.371C704.303 342.445 704.702 341.707 705.498 341.156C706.295 340.605 707.25 340.33 708.364 340.33C709.231 340.33 710.045 340.553 710.807 340.998C711.569 341.443 712.137 342.023 712.512 342.738L710.86 343.74C710.133 342.814 709.307 342.352 708.381 342.352C707.901 342.352 707.526 342.451 707.256 342.65C706.998 342.838 706.87 343.09 706.87 343.406C706.87 343.512 706.881 343.611 706.905 343.705C706.94 343.799 706.993 343.887 707.063 343.969C707.133 344.051 707.198 344.127 707.256 344.197C707.327 344.256 707.42 344.32 707.537 344.391C707.666 344.461 707.772 344.52 707.854 344.566C707.948 344.602 708.077 344.648 708.241 344.707C708.405 344.766 708.534 344.812 708.627 344.848C708.721 344.871 708.862 344.918 709.049 344.988C709.237 345.047 709.371 345.088 709.453 345.111C711.504 345.791 712.53 346.822 712.53 348.205C712.53 349.072 712.172 349.811 711.457 350.42C710.743 351.018 709.729 351.316 708.416 351.316C707.397 351.316 706.483 351.088 705.674 350.631C704.877 350.174 704.268 349.564 703.846 348.803Z" fill="black"/>
<rect x="1" y="1" width="366" height="480" rx="4" fill="#F9F9F9" stroke="url(#paint2_linear)" stroke-width="2"/>
<path d="M125.968 315.871L128.271 315.098C128.587 315.672 129.056 316.146 129.677 316.521C130.31 316.896 130.978 317.084 131.681 317.084C132.396 317.084 132.97 316.908 133.403 316.557C133.849 316.205 134.071 315.76 134.071 315.221C134.071 314.623 133.825 314.148 133.333 313.797C132.853 313.445 132.155 313.117 131.241 312.812C129.87 312.355 128.95 311.998 128.482 311.74C127.157 311.002 126.495 309.918 126.495 308.488C126.495 307.305 126.958 306.35 127.884 305.623C128.821 304.896 130.034 304.533 131.523 304.533C132.777 304.533 133.843 304.826 134.722 305.412C135.601 305.998 136.245 306.748 136.655 307.662L134.458 308.4C133.685 307.322 132.7 306.783 131.505 306.783C130.79 306.783 130.228 306.941 129.818 307.258C129.407 307.574 129.202 307.984 129.202 308.488C129.202 308.652 129.22 308.805 129.255 308.945C129.302 309.086 129.372 309.215 129.466 309.332C129.56 309.449 129.653 309.561 129.747 309.666C129.841 309.76 129.976 309.854 130.152 309.947C130.327 310.041 130.474 310.123 130.591 310.193C130.72 310.252 130.902 310.328 131.136 310.422C131.382 310.504 131.569 310.568 131.698 310.615C131.839 310.65 132.05 310.715 132.331 310.809C132.612 310.891 132.818 310.955 132.946 311.002C133.486 311.178 133.96 311.365 134.37 311.564C134.78 311.764 135.179 312.021 135.566 312.338C135.964 312.654 136.269 313.047 136.48 313.516C136.691 313.984 136.796 314.512 136.796 315.098C136.796 316.434 136.304 317.471 135.319 318.209C134.347 318.947 133.111 319.316 131.611 319.316C130.31 319.316 129.155 319.006 128.148 318.385C127.152 317.764 126.425 316.926 125.968 315.871ZM138.896 307.328V304.656H141.498V307.328H138.896ZM138.967 319V308.646H141.445V319H138.967ZM146.34 313.621C146.34 314.617 146.528 315.391 146.903 315.941C147.289 316.48 147.793 316.75 148.414 316.75C149.036 316.75 149.528 316.48 149.891 315.941C150.254 315.402 150.436 314.623 150.436 313.604C150.436 312.596 150.248 311.822 149.873 311.283C149.51 310.744 149.03 310.475 148.432 310.475C147.788 310.475 147.278 310.756 146.903 311.318C146.528 311.869 146.34 312.637 146.34 313.621ZM143.774 313.639C143.774 312.021 144.178 310.732 144.987 309.771C145.807 308.811 146.844 308.33 148.098 308.33C148.684 308.33 149.176 308.471 149.575 308.752C149.985 309.033 150.278 309.344 150.454 309.684V308.646H152.967V317.506C152.967 319.463 152.575 320.904 151.789 321.83C151.016 322.756 149.832 323.219 148.239 323.219C146.457 323.219 145.086 322.539 144.125 321.18L145.778 320.02C146.434 320.816 147.266 321.215 148.274 321.215C148.86 321.215 149.352 320.992 149.75 320.547C150.161 320.102 150.389 319.527 150.436 318.824C150.459 318.449 150.471 318.086 150.471 317.734C150.248 318.074 149.92 318.355 149.487 318.578C149.053 318.789 148.614 318.895 148.168 318.895C146.856 318.895 145.795 318.42 144.987 317.471C144.178 316.51 143.774 315.232 143.774 313.639ZM155.577 319V308.646H158.003V309.789C158.179 309.438 158.495 309.109 158.952 308.805C159.421 308.488 160.024 308.33 160.763 308.33C163.024 308.33 164.155 309.672 164.155 312.355V319H161.659V312.654C161.659 311.857 161.536 311.295 161.29 310.967C161.044 310.639 160.681 310.475 160.2 310.475C159.591 310.475 159.087 310.721 158.689 311.213C158.29 311.705 158.091 312.32 158.091 313.059V319H155.577ZM166.467 313.146V310.914H175.326V313.146H166.467ZM177.637 315.203V308.646H180.168V314.922C180.168 316.422 180.678 317.172 181.698 317.172C182.319 317.172 182.805 316.902 183.157 316.363C183.508 315.812 183.684 315.162 183.684 314.412V308.646H186.18V319H183.772V317.928H183.737C183.549 318.291 183.227 318.613 182.77 318.895C182.325 319.176 181.786 319.316 181.153 319.316C180.754 319.316 180.368 319.258 179.993 319.141C179.629 319.023 179.26 318.83 178.885 318.561C178.51 318.279 178.205 317.852 177.971 317.277C177.748 316.703 177.637 316.012 177.637 315.203ZM191.427 313.814C191.427 314.846 191.614 315.666 191.989 316.275C192.376 316.873 192.915 317.172 193.606 317.172C194.263 317.172 194.79 316.885 195.188 316.311C195.587 315.725 195.786 314.893 195.786 313.814C195.786 312.783 195.593 311.969 195.206 311.371C194.819 310.773 194.286 310.475 193.606 310.475C192.915 310.475 192.376 310.785 191.989 311.406C191.614 312.016 191.427 312.818 191.427 313.814ZM188.966 323.148V308.646H191.374V309.807C192.019 308.822 192.88 308.33 193.958 308.33C195.224 308.33 196.272 308.822 197.104 309.807C197.948 310.791 198.37 312.127 198.37 313.814C198.37 314.775 198.235 315.625 197.966 316.363C197.696 317.09 197.339 317.664 196.894 318.086C196.448 318.496 195.974 318.801 195.47 319C194.978 319.211 194.474 319.316 193.958 319.316C193.325 319.316 192.798 319.182 192.376 318.912C191.966 318.631 191.661 318.314 191.462 317.963V323.148H188.966ZM207.194 316.012C207.194 316.352 207.323 316.639 207.58 316.873C207.85 317.107 208.207 317.225 208.653 317.225C209.321 317.225 209.889 317.002 210.358 316.557C210.826 316.111 211.061 315.525 211.061 314.799V313.99C210.592 314.107 209.994 314.219 209.268 314.324C207.885 314.547 207.194 315.109 207.194 316.012ZM204.627 316.223C204.627 315.273 204.985 314.494 205.699 313.885C206.426 313.275 207.504 312.865 208.934 312.654C210.059 312.467 210.768 312.332 211.061 312.25V311.705C211.061 311.248 210.897 310.902 210.569 310.668C210.241 310.422 209.807 310.299 209.268 310.299C208.19 310.299 207.241 310.744 206.42 311.635L204.908 310.334C206.033 308.998 207.481 308.33 209.25 308.33C210.809 308.33 211.916 308.705 212.573 309.455C213.241 310.193 213.574 311.248 213.574 312.619V319H211.131V317.822C210.908 318.232 210.539 318.584 210.024 318.877C209.52 319.17 208.94 319.316 208.283 319.316C207.158 319.316 206.268 319.029 205.612 318.455C204.955 317.881 204.627 317.137 204.627 316.223ZM216.097 319V308.646H218.522V309.789C218.698 309.438 219.015 309.109 219.472 308.805C219.94 308.488 220.544 308.33 221.282 308.33C223.544 308.33 224.675 309.672 224.675 312.355V319H222.179V312.654C222.179 311.857 222.056 311.295 221.809 310.967C221.563 310.639 221.2 310.475 220.72 310.475C220.11 310.475 219.606 310.721 219.208 311.213C218.809 311.705 218.61 312.32 218.61 313.059V319H216.097ZM226.652 313.814C226.652 312.104 227.062 310.762 227.882 309.789C228.714 308.816 229.781 308.33 231.082 308.33C231.632 308.33 232.119 308.459 232.541 308.717C232.974 308.963 233.308 309.256 233.543 309.596V304.393H236.056V319H233.613V317.822C233.39 318.232 233.044 318.584 232.576 318.877C232.119 319.17 231.615 319.316 231.064 319.316C230.513 319.316 229.986 319.211 229.482 319C228.978 318.801 228.509 318.496 228.076 318.086C227.642 317.664 227.296 317.09 227.039 316.363C226.781 315.625 226.652 314.775 226.652 313.814ZM229.236 313.814C229.236 314.893 229.429 315.725 229.816 316.311C230.214 316.885 230.753 317.172 231.433 317.172C232.078 317.172 232.593 316.873 232.98 316.275C233.378 315.678 233.578 314.857 233.578 313.814C233.578 312.818 233.39 312.016 233.015 311.406C232.64 310.785 232.113 310.475 231.433 310.475C230.718 310.475 230.173 310.779 229.798 311.389C229.423 311.998 229.236 312.807 229.236 313.814ZM69.7995 345.779C69.7995 344.104 70.2565 342.779 71.1706 341.807C72.0964 340.822 73.2565 340.33 74.6511 340.33C76.0104 340.33 77.1413 340.828 78.0436 341.824C78.9577 342.82 79.4147 344.121 79.4147 345.727C79.4147 346.16 79.403 346.482 79.3796 346.693H72.3483C72.3483 347.408 72.5651 348.023 72.9987 348.539C73.444 349.055 74.0475 349.312 74.8093 349.312C75.3483 349.312 75.8229 349.178 76.2331 348.908C76.655 348.627 76.9714 348.275 77.1823 347.854L79.2741 348.592C78.946 349.365 78.3893 350.016 77.6042 350.543C76.8307 351.059 75.8757 351.316 74.7389 351.316C73.2858 351.316 72.0964 350.818 71.1706 349.822C70.2565 348.814 69.7995 347.467 69.7995 345.779ZM72.3659 344.953H76.8659C76.8659 344.227 76.6667 343.605 76.2682 343.09C75.8815 342.574 75.3425 342.316 74.6511 342.316C73.9479 342.316 73.3913 342.58 72.9811 343.107C72.5827 343.623 72.3776 344.238 72.3659 344.953ZM81.4798 351V340.646H83.9056V341.789C84.0814 341.438 84.3978 341.109 84.8548 340.805C85.3236 340.488 85.9271 340.33 86.6654 340.33C88.9271 340.33 90.0579 341.672 90.0579 344.355V351H87.5618V344.654C87.5618 343.857 87.4388 343.295 87.1927 342.967C86.9466 342.639 86.5833 342.475 86.1029 342.475C85.4935 342.475 84.9896 342.721 84.5911 343.213C84.1927 343.705 83.9935 344.32 83.9935 345.059V351H81.4798ZM91.6484 342.773V340.646H93.1953V337.641H95.6914V340.646H97.9414V342.773H95.6914V347.59C95.6914 348.434 96.0605 348.855 96.7988 348.855H97.9589V351H96.4824C95.4746 351 94.6718 350.742 94.0742 350.227C93.4882 349.711 93.1953 348.885 93.1953 347.748V342.773H91.6484ZM99.4439 345.779C99.4439 344.104 99.901 342.779 100.815 341.807C101.741 340.822 102.901 340.33 104.296 340.33C105.655 340.33 106.786 340.828 107.688 341.824C108.602 342.82 109.059 344.121 109.059 345.727C109.059 346.16 109.047 346.482 109.024 346.693H101.993C101.993 347.408 102.21 348.023 102.643 348.539C103.088 349.055 103.692 349.312 104.454 349.312C104.993 349.312 105.467 349.178 105.878 348.908C106.299 348.627 106.616 348.275 106.827 347.854L108.919 348.592C108.59 349.365 108.034 350.016 107.249 350.543C106.475 351.059 105.52 351.316 104.383 351.316C102.93 351.316 101.741 350.818 100.815 349.822C99.901 348.814 99.4439 347.467 99.4439 345.779ZM102.01 344.953H106.51C106.51 344.227 106.311 343.605 105.913 343.09C105.526 342.574 104.987 342.316 104.296 342.316C103.592 342.316 103.036 342.58 102.626 343.107C102.227 343.623 102.022 344.238 102.01 344.953ZM111.124 351V340.646H113.532V341.631C113.743 341.279 114.054 340.975 114.464 340.717C114.886 340.459 115.372 340.33 115.923 340.33C116.462 340.33 116.902 340.395 117.241 340.523V342.826C116.831 342.697 116.398 342.633 115.941 342.633C115.191 342.633 114.616 342.926 114.218 343.512C113.831 344.098 113.638 344.883 113.638 345.867V351H111.124ZM122.444 340.646H125.168L126.838 345.744C126.897 345.932 127.108 346.705 127.471 348.064H127.542C127.776 347.139 127.981 346.365 128.157 345.744L129.668 340.646H132.393L128.139 352.248C127.741 353.314 127.225 354.064 126.592 354.498C125.959 354.932 125.168 355.148 124.219 355.148H123.499V353.039H123.815C124.366 353.039 124.805 352.934 125.133 352.723C125.473 352.512 125.743 352.137 125.942 351.598L126.258 350.631L122.444 340.646ZM135.566 345.832C135.566 347.004 135.788 347.854 136.234 348.381C136.691 348.908 137.212 349.172 137.798 349.172C138.372 349.172 138.888 348.908 139.345 348.381C139.814 347.842 140.048 346.992 140.048 345.832C140.048 344.66 139.819 343.811 139.362 343.283C138.905 342.744 138.384 342.475 137.798 342.475C137.212 342.475 136.691 342.738 136.234 343.266C135.788 343.793 135.566 344.648 135.566 345.832ZM132.982 345.832C132.982 344.297 133.386 342.996 134.194 341.93C135.003 340.863 136.204 340.33 137.798 340.33C138.876 340.33 139.79 340.6 140.54 341.139C141.29 341.678 141.823 342.352 142.14 343.16C142.456 343.957 142.614 344.848 142.614 345.832C142.614 346.301 142.573 346.77 142.491 347.238C142.409 347.695 142.251 348.176 142.017 348.68C141.794 349.184 141.507 349.629 141.155 350.016C140.816 350.391 140.353 350.701 139.767 350.947C139.193 351.193 138.536 351.316 137.798 351.316C137.071 351.316 136.421 351.199 135.847 350.965C135.273 350.73 134.81 350.432 134.458 350.068C134.107 349.693 133.814 349.26 133.579 348.768C133.357 348.264 133.198 347.777 133.105 347.309C133.023 346.828 132.982 346.336 132.982 345.832ZM144.574 347.203V340.646H147.105V346.922C147.105 348.422 147.615 349.172 148.635 349.172C149.256 349.172 149.742 348.902 150.094 348.363C150.445 347.812 150.621 347.162 150.621 346.412V340.646H153.117V351H150.709V349.928H150.674C150.486 350.291 150.164 350.613 149.707 350.895C149.262 351.176 148.722 351.316 148.09 351.316C147.691 351.316 147.304 351.258 146.929 351.141C146.566 351.023 146.197 350.83 145.822 350.561C145.447 350.279 145.142 349.852 144.908 349.277C144.685 348.703 144.574 348.012 144.574 347.203ZM155.797 351V340.646H158.206V341.631C158.416 341.279 158.727 340.975 159.137 340.717C159.559 340.459 160.045 340.33 160.596 340.33C161.135 340.33 161.575 340.395 161.914 340.523V342.826C161.504 342.697 161.071 342.633 160.614 342.633C159.864 342.633 159.289 342.926 158.891 343.512C158.504 344.098 158.311 344.883 158.311 345.867V351H155.797ZM170.72 345.814C170.72 346.846 170.908 347.666 171.283 348.275C171.67 348.873 172.209 349.172 172.9 349.172C173.556 349.172 174.084 348.885 174.482 348.311C174.881 347.725 175.08 346.893 175.08 345.814C175.08 344.783 174.886 343.969 174.5 343.371C174.113 342.773 173.58 342.475 172.9 342.475C172.209 342.475 171.67 342.785 171.283 343.406C170.908 344.016 170.72 344.818 170.72 345.814ZM168.259 355.148V340.646H170.668V341.807C171.312 340.822 172.174 340.33 173.252 340.33C174.517 340.33 175.566 340.822 176.398 341.807C177.242 342.791 177.664 344.127 177.664 345.814C177.664 346.775 177.529 347.625 177.259 348.363C176.99 349.09 176.633 349.664 176.187 350.086C175.742 350.496 175.267 350.801 174.763 351C174.271 351.211 173.767 351.316 173.252 351.316C172.619 351.316 172.092 351.182 171.67 350.912C171.259 350.631 170.955 350.314 170.756 349.963V355.148H168.259ZM179.764 351V340.646H182.172V341.631C182.383 341.279 182.694 340.975 183.104 340.717C183.526 340.459 184.012 340.33 184.563 340.33C185.102 340.33 185.541 340.395 185.881 340.523V342.826C185.471 342.697 185.037 342.633 184.58 342.633C183.83 342.633 183.256 342.926 182.858 343.512C182.471 344.098 182.278 344.883 182.278 345.867V351H179.764ZM189.388 345.832C189.388 347.004 189.61 347.854 190.056 348.381C190.513 348.908 191.034 349.172 191.62 349.172C192.194 349.172 192.71 348.908 193.167 348.381C193.636 347.842 193.87 346.992 193.87 345.832C193.87 344.66 193.642 343.811 193.185 343.283C192.728 342.744 192.206 342.475 191.62 342.475C191.034 342.475 190.513 342.738 190.056 343.266C189.61 343.793 189.388 344.648 189.388 345.832ZM186.804 345.832C186.804 344.297 187.208 342.996 188.017 341.93C188.825 340.863 190.026 340.33 191.62 340.33C192.698 340.33 193.612 340.6 194.362 341.139C195.112 341.678 195.646 342.352 195.962 343.16C196.278 343.957 196.437 344.848 196.437 345.832C196.437 346.301 196.396 346.77 196.313 347.238C196.231 347.695 196.073 348.176 195.839 348.68C195.616 349.184 195.329 349.629 194.978 350.016C194.638 350.391 194.175 350.701 193.589 350.947C193.015 351.193 192.358 351.316 191.62 351.316C190.894 351.316 190.243 351.199 189.669 350.965C189.095 350.73 188.632 350.432 188.28 350.068C187.929 349.693 187.636 349.26 187.401 348.768C187.179 348.264 187.021 347.777 186.927 347.309C186.845 346.828 186.804 346.336 186.804 345.832ZM198.748 339.328V336.656H201.402V339.328H198.748ZM197.148 352.828H197.482C197.927 352.828 198.255 352.676 198.466 352.371C198.689 352.078 198.8 351.598 198.8 350.93V340.646H201.332V351.018C201.332 352.33 201.033 353.32 200.435 353.988C199.849 354.656 199 354.99 197.886 354.99H197.148V352.828ZM203.608 345.779C203.608 344.104 204.065 342.779 204.979 341.807C205.905 340.822 207.065 340.33 208.459 340.33C209.819 340.33 210.949 340.828 211.852 341.824C212.766 342.82 213.223 344.121 213.223 345.727C213.223 346.16 213.211 346.482 213.188 346.693H206.157C206.157 347.408 206.373 348.023 206.807 348.539C207.252 349.055 207.856 349.312 208.617 349.312C209.157 349.312 209.631 349.178 210.041 348.908C210.463 348.627 210.78 348.275 210.991 347.854L213.082 348.592C212.754 349.365 212.198 350.016 211.412 350.543C210.639 351.059 209.684 351.316 208.547 351.316C207.094 351.316 205.905 350.818 204.979 349.822C204.065 348.814 203.608 347.467 203.608 345.779ZM206.174 344.953H210.674C210.674 344.227 210.475 343.605 210.076 343.09C209.69 342.574 209.151 342.316 208.459 342.316C207.756 342.316 207.199 342.58 206.789 343.107C206.391 343.623 206.186 344.238 206.174 344.953ZM214.725 345.832C214.725 344.145 215.177 342.809 216.079 341.824C216.981 340.828 218.142 340.33 219.559 340.33C220.626 340.33 221.517 340.658 222.231 341.314C222.946 341.959 223.392 342.691 223.567 343.512L221.44 344.092C221.311 343.658 221.089 343.283 220.772 342.967C220.456 342.639 220.063 342.475 219.595 342.475C218.856 342.475 218.288 342.797 217.89 343.441C217.503 344.074 217.309 344.871 217.309 345.832C217.309 346.898 217.526 347.725 217.96 348.311C218.393 348.885 218.938 349.172 219.595 349.172C220.11 349.172 220.556 348.996 220.931 348.645C221.306 348.281 221.558 347.871 221.686 347.414L223.813 348.012C223.602 348.879 223.104 349.646 222.319 350.314C221.534 350.982 220.614 351.316 219.559 351.316C218.13 351.316 216.964 350.818 216.061 349.822C215.171 348.826 214.725 347.496 214.725 345.832ZM224.789 342.773V340.646H226.336V337.641H228.832V340.646H231.082V342.773H228.832V347.59C228.832 348.434 229.201 348.855 229.939 348.855H231.099V351H229.623C228.615 351 227.812 350.742 227.214 350.227C226.628 349.711 226.336 348.885 226.336 347.748V342.773H224.789ZM237.339 345.814C237.339 344.104 237.749 342.762 238.569 341.789C239.401 340.816 240.468 340.33 241.768 340.33C242.319 340.33 242.806 340.459 243.227 340.717C243.661 340.963 243.995 341.256 244.229 341.596V336.393H246.743V351H244.3V349.822C244.077 350.232 243.731 350.584 243.263 350.877C242.806 351.17 242.302 351.316 241.751 351.316C241.2 351.316 240.673 351.211 240.169 351C239.665 350.801 239.196 350.496 238.763 350.086C238.329 349.664 237.983 349.09 237.725 348.363C237.468 347.625 237.339 346.775 237.339 345.814ZM239.923 345.814C239.923 346.893 240.116 347.725 240.503 348.311C240.901 348.885 241.44 349.172 242.12 349.172C242.764 349.172 243.28 348.873 243.667 348.275C244.065 347.678 244.264 346.857 244.264 345.814C244.264 344.818 244.077 344.016 243.702 343.406C243.327 342.785 242.8 342.475 242.12 342.475C241.405 342.475 240.86 342.779 240.485 343.389C240.11 343.998 239.923 344.807 239.923 345.814ZM248.949 345.779C248.949 344.104 249.406 342.779 250.32 341.807C251.246 340.822 252.406 340.33 253.8 340.33C255.16 340.33 256.29 340.828 257.193 341.824C258.107 342.82 258.564 344.121 258.564 345.727C258.564 346.16 258.552 346.482 258.529 346.693H251.498C251.498 347.408 251.714 348.023 252.148 348.539C252.593 349.055 253.197 349.312 253.958 349.312C254.498 349.312 254.972 349.178 255.382 348.908C255.804 348.627 256.121 348.275 256.332 347.854L258.423 348.592C258.095 349.365 257.539 350.016 256.753 350.543C255.98 351.059 255.025 351.316 253.888 351.316C252.435 351.316 251.246 350.818 250.32 349.822C249.406 348.814 248.949 347.467 248.949 345.779ZM251.515 344.953H256.015C256.015 344.227 255.816 343.605 255.417 343.09C255.031 342.574 254.492 342.316 253.8 342.316C253.097 342.316 252.54 342.58 252.13 343.107C251.732 343.623 251.527 344.238 251.515 344.953ZM259.768 342.773V340.646H261.315V337.641H263.811V340.646H266.061V342.773H263.811V347.59C263.811 348.434 264.18 348.855 264.918 348.855H266.078V351H264.602C263.594 351 262.791 350.742 262.193 350.227C261.608 349.711 261.315 348.885 261.315 347.748V342.773H259.768ZM270.094 348.012C270.094 348.352 270.223 348.639 270.481 348.873C270.751 349.107 271.108 349.225 271.553 349.225C272.221 349.225 272.79 349.002 273.259 348.557C273.727 348.111 273.962 347.525 273.962 346.799V345.99C273.493 346.107 272.895 346.219 272.169 346.324C270.786 346.547 270.094 347.109 270.094 348.012ZM267.528 348.223C267.528 347.273 267.885 346.494 268.6 345.885C269.327 345.275 270.405 344.865 271.835 344.654C272.96 344.467 273.669 344.332 273.962 344.25V343.705C273.962 343.248 273.798 342.902 273.469 342.668C273.141 342.422 272.708 342.299 272.169 342.299C271.091 342.299 270.141 342.744 269.321 343.635L267.809 342.334C268.934 340.998 270.382 340.33 272.151 340.33C273.71 340.33 274.817 340.705 275.473 341.455C276.141 342.193 276.475 343.248 276.475 344.619V351H274.032V349.822C273.809 350.232 273.44 350.584 272.925 350.877C272.421 351.17 271.841 351.316 271.184 351.316C270.059 351.316 269.169 351.029 268.512 350.455C267.856 349.881 267.528 349.137 267.528 348.223ZM279.103 339.328V336.656H281.704V339.328H279.103ZM279.173 351V340.646H281.652V351H279.173ZM284.666 351V336.393H287.18V351H284.666ZM289.262 348.803L291.038 347.748C291.741 348.779 292.649 349.295 293.762 349.295C294.266 349.295 294.659 349.195 294.94 348.996C295.233 348.785 295.38 348.516 295.38 348.188C295.38 348.082 295.362 347.988 295.327 347.906C295.303 347.812 295.257 347.725 295.186 347.643C295.116 347.561 295.051 347.49 294.993 347.432C294.934 347.373 294.835 347.309 294.694 347.238C294.565 347.168 294.46 347.115 294.378 347.08C294.296 347.033 294.167 346.98 293.991 346.922C293.815 346.852 293.68 346.805 293.587 346.781C293.493 346.746 293.341 346.699 293.13 346.641C292.919 346.57 292.766 346.518 292.673 346.482C291.782 346.189 291.067 345.814 290.528 345.357C289.989 344.9 289.719 344.238 289.719 343.371C289.719 342.445 290.118 341.707 290.915 341.156C291.712 340.605 292.667 340.33 293.78 340.33C294.647 340.33 295.462 340.553 296.223 340.998C296.985 341.443 297.553 342.023 297.928 342.738L296.276 343.74C295.549 342.814 294.723 342.352 293.798 342.352C293.317 342.352 292.942 342.451 292.673 342.65C292.415 342.838 292.286 343.09 292.286 343.406C292.286 343.512 292.298 343.611 292.321 343.705C292.356 343.799 292.409 343.887 292.479 343.969C292.549 344.051 292.614 344.127 292.673 344.197C292.743 344.256 292.837 344.32 292.954 344.391C293.083 344.461 293.188 344.52 293.27 344.566C293.364 344.602 293.493 344.648 293.657 344.707C293.821 344.766 293.95 344.812 294.044 344.848C294.137 344.871 294.278 344.918 294.466 344.988C294.653 345.047 294.788 345.088 294.87 345.111C296.921 345.791 297.946 346.822 297.946 348.205C297.946 349.072 297.589 349.811 296.874 350.42C296.159 351.018 295.145 351.316 293.833 351.316C292.813 351.316 291.899 351.088 291.091 350.631C290.294 350.174 289.684 349.564 289.262 348.803Z" fill="black"/>
<defs>
<linearGradient id="paint0_linear" x1="986" y1="475" x2="986" y2="4.18347e-06" gradientUnits="userSpaceOnUse">
<stop stop-color="#EEEEEE"/>
<stop offset="1" stop-color="#C4C4C4" stop-opacity="0"/>
</linearGradient>
<linearGradient id="paint1_linear" x1="585" y1="475" x2="585" y2="4.18347e-06" gradientUnits="userSpaceOnUse">
<stop stop-color="#EEEEEE"/>
<stop offset="1" stop-color="#C4C4C4" stop-opacity="0"/>
</linearGradient>
<linearGradient id="paint2_linear" x1="184" y1="475" x2="184" y2="4.18347e-06" gradientUnits="userSpaceOnUse">
<stop stop-color="#EEEEEE"/>
<stop offset="1" stop-color="#C4C4C4" stop-opacity="0"/>
</linearGradient>
</defs>
</svg>
