<svg width="473" height="87" viewBox="0 0 473 87" fill="none" xmlns="http://www.w3.org/2000/svg">
<path d="M43.0043 20.7734H5.2444C2.3537 20.7734 0 23.1271 0 26.0178V63.7777C0 66.6684 2.3537 69.0221 5.2444 69.0221H43.0043C45.895 69.0221 48.2487 66.6684 48.2487 63.7777V26.0178C48.2488 23.1271 45.8951 20.7734 43.0043 20.7734ZM13.6355 24.969C14.2145 24.969 14.6845 25.4389 14.6845 26.0179C14.6845 26.5969 14.2145 27.0668 13.6355 27.0668C13.0566 27.0668 12.5866 26.5968 12.5866 26.0178C12.5866 25.4388 13.0566 24.969 13.6355 24.969ZM9.43997 24.969C10.019 24.969 10.4889 25.4389 10.4889 26.0179C10.4889 26.5969 10.019 27.0668 9.43997 27.0668C8.86099 27.0668 8.39105 26.5968 8.39105 26.0178C8.39105 25.4388 8.86099 24.969 9.43997 24.969ZM5.2444 24.969C5.82338 24.969 6.29331 25.4388 6.29331 26.0178C6.29331 26.5968 5.82338 27.0668 5.2444 27.0668C4.66541 27.0668 4.19548 26.5968 4.19548 26.0178C4.19548 25.4388 4.66541 24.969 5.2444 24.969ZM46.1509 63.7777C46.1509 65.5126 44.7392 66.9244 43.0043 66.9244H5.2444C3.50951 66.9244 2.09774 65.5126 2.09774 63.7777V31.2623H46.1509V63.7777Z" fill="#646F71"/>
<path d="M43.0043 20.7734H5.2444C2.3537 20.7734 0 23.1271 0 26.0178V63.7777C0 66.6684 2.3537 69.0221 5.2444 69.0221H43.0043C45.895 69.0221 48.2487 66.6684 48.2487 63.7777V26.0178C48.2488 23.1271 45.8951 20.7734 43.0043 20.7734ZM13.6355 24.969C14.2145 24.969 14.6845 25.4389 14.6845 26.0179C14.6845 26.5969 14.2145 27.0668 13.6355 27.0668C13.0566 27.0668 12.5866 26.5968 12.5866 26.0178C12.5866 25.4388 13.0566 24.969 13.6355 24.969ZM9.43997 24.969C10.019 24.969 10.4889 25.4389 10.4889 26.0179C10.4889 26.5969 10.019 27.0668 9.43997 27.0668C8.86099 27.0668 8.39105 26.5968 8.39105 26.0178C8.39105 25.4388 8.86099 24.969 9.43997 24.969ZM5.2444 24.969C5.82338 24.969 6.29331 25.4388 6.29331 26.0178C6.29331 26.5968 5.82338 27.0668 5.2444 27.0668C4.66541 27.0668 4.19548 26.5968 4.19548 26.0178C4.19548 25.4388 4.66541 24.969 5.2444 24.969ZM46.1509 63.7777C46.1509 65.5126 44.7392 66.9244 43.0043 66.9244H5.2444C3.50951 66.9244 2.09774 65.5126 2.09774 63.7777V31.2623H46.1509V63.7777Z" stroke="#005A5F"/>
<path d="M15.9737 53.06C15.9832 53.0695 15.994 53.0776 16.0049 53.0859C16.0135 53.0923 16.0221 53.0988 16.0303 53.1061C16.538 53.6075 17.0918 54.0648 17.6855 54.4655C17.7169 54.4865 17.7495 54.5054 17.782 54.5242C17.8145 54.5431 17.847 54.562 17.8785 54.583C18.4407 54.9459 19.0302 55.269 19.6532 55.5312C19.6889 55.5459 19.7251 55.5585 19.7612 55.5711C19.7974 55.5837 19.8336 55.5963 19.8693 55.611C20.4986 55.8606 21.1489 56.0661 21.8265 56.2025C21.847 56.2066 21.8676 56.2092 21.8879 56.2118C21.909 56.2145 21.9299 56.2171 21.9503 56.2214C22.6551 56.3578 23.3809 56.4354 24.1257 56.4354C24.8705 56.4354 25.5963 56.3578 26.3011 56.2235C26.3217 56.2194 26.3422 56.2168 26.3625 56.2142C26.3837 56.2115 26.4045 56.2089 26.4249 56.2046C27.1004 56.0682 27.7507 55.8627 28.3779 55.613C28.4109 55.5998 28.4442 55.5883 28.4776 55.5768C28.5187 55.5627 28.5598 55.5486 28.6002 55.5312C29.2191 55.2711 29.8043 54.9502 30.3624 54.5893C30.3915 54.5708 30.4213 54.5534 30.4511 54.536C30.4922 54.512 30.5332 54.4881 30.5721 54.4613C31.1553 54.0669 31.6966 53.618 32.1979 53.1272C32.2118 53.1133 32.2269 53.1019 32.242 53.0907C32.2542 53.0815 32.2663 53.0725 32.2776 53.0622C32.2797 53.06 32.2808 53.0569 32.2818 53.0537C32.2829 53.0506 32.2839 53.0474 32.286 53.0454C34.3711 50.956 35.6634 48.0757 35.6634 44.8976C35.6634 38.535 30.4882 33.3599 24.1257 33.3599C17.7632 33.3599 12.5879 38.535 12.5879 44.8976C12.5879 48.0778 13.8801 50.9601 15.9674 53.0495C15.97 53.0508 15.971 53.0537 15.9719 53.0562C15.9724 53.0578 15.9729 53.0592 15.9737 53.06ZM24.1256 35.4576C29.3302 35.4576 33.5656 39.693 33.5656 44.8976C33.5656 46.9471 32.8922 48.8309 31.7783 50.3791C30.807 48.7239 29.3385 47.438 27.6079 46.6912C28.6798 45.7304 29.37 44.3501 29.37 42.7998C29.37 39.9091 27.0163 37.5554 24.1256 37.5554C21.2349 37.5554 18.8812 39.9091 18.8812 42.7998C18.8812 44.3501 19.5692 45.7305 20.6433 46.6912C18.9106 47.438 17.4443 48.7239 16.4729 50.3811C15.359 48.8309 14.6856 46.947 14.6856 44.8976C14.6856 39.693 18.921 35.4576 24.1256 35.4576Z" fill="#646F71"/>
<path d="M15.9737 53.06C15.9832 53.0695 15.994 53.0776 16.0049 53.0859C16.0135 53.0923 16.0221 53.0988 16.0303 53.1061C16.538 53.6075 17.0918 54.0648 17.6855 54.4655C17.7169 54.4865 17.7495 54.5054 17.782 54.5242C17.8145 54.5431 17.847 54.562 17.8785 54.583C18.4407 54.9459 19.0302 55.269 19.6532 55.5312C19.6889 55.5459 19.7251 55.5585 19.7612 55.5711C19.7974 55.5837 19.8336 55.5963 19.8693 55.611C20.4986 55.8606 21.1489 56.0661 21.8265 56.2025C21.847 56.2066 21.8676 56.2092 21.8879 56.2118C21.909 56.2145 21.9299 56.2171 21.9503 56.2214C22.6551 56.3578 23.3809 56.4354 24.1257 56.4354C24.8705 56.4354 25.5963 56.3578 26.3011 56.2235C26.3217 56.2194 26.3422 56.2168 26.3625 56.2142C26.3837 56.2115 26.4045 56.2089 26.4249 56.2046C27.1004 56.0682 27.7507 55.8627 28.3779 55.613C28.4109 55.5998 28.4442 55.5883 28.4776 55.5768C28.5187 55.5627 28.5598 55.5486 28.6002 55.5312C29.2191 55.2711 29.8043 54.9502 30.3624 54.5893C30.3915 54.5708 30.4213 54.5534 30.4511 54.536C30.4922 54.512 30.5332 54.4881 30.5721 54.4613C31.1553 54.0669 31.6966 53.618 32.1979 53.1272C32.2118 53.1133 32.2269 53.1019 32.242 53.0907C32.2542 53.0815 32.2663 53.0725 32.2776 53.0622C32.2797 53.06 32.2808 53.0569 32.2818 53.0537C32.2829 53.0506 32.2839 53.0474 32.286 53.0454C34.3711 50.956 35.6634 48.0757 35.6634 44.8976C35.6634 38.535 30.4882 33.3599 24.1257 33.3599C17.7632 33.3599 12.5879 38.535 12.5879 44.8976C12.5879 48.0778 13.8801 50.9601 15.9674 53.0495C15.97 53.0508 15.971 53.0537 15.9719 53.0562C15.9724 53.0578 15.9729 53.0592 15.9737 53.06ZM24.1256 35.4576C29.3302 35.4576 33.5656 39.693 33.5656 44.8976C33.5656 46.9471 32.8922 48.8309 31.7783 50.3791C30.807 48.7239 29.3385 47.438 27.6079 46.6912C28.6798 45.7304 29.37 44.3501 29.37 42.7998C29.37 39.9091 27.0163 37.5554 24.1256 37.5554C21.2349 37.5554 18.8812 39.9091 18.8812 42.7998C18.8812 44.3501 19.5692 45.7305 20.6433 46.6912C18.9106 47.438 17.4443 48.7239 16.4729 50.3811C15.359 48.8309 14.6856 46.947 14.6856 44.8976C14.6856 39.693 18.921 35.4576 24.1256 35.4576Z" stroke="#005A5F"/>
<path d="M25.1729 59.5826V63.7782C25.1729 64.3572 25.6428 64.8271 26.2218 64.8271H36.7107C37.2896 64.8271 37.7596 64.3572 37.7596 63.7782V59.5826C37.7596 59.0036 37.2896 58.5337 36.7107 58.5337H26.2218C25.6428 58.5337 25.1729 59.0036 25.1729 59.5826Z" fill="#646F71"/>
<path d="M25.1729 59.5826V63.7782C25.1729 64.3572 25.6428 64.8271 26.2218 64.8271H36.7107C37.2896 64.8271 37.7596 64.3572 37.7596 63.7782V59.5826C37.7596 59.0036 37.2896 58.5337 36.7107 58.5337H26.2218C25.6428 58.5337 25.1729 59.0036 25.1729 59.5826Z" stroke="#005A5F"/>
<path d="M11.5382 64.8266H22.0271C22.6061 64.8266 23.076 64.3567 23.076 63.7777V59.5821C23.076 59.0031 22.6061 58.5332 22.0271 58.5332H11.5382C10.9592 58.5332 10.4893 59.0031 10.4893 59.5821V63.7777C10.4894 64.3567 10.9592 64.8266 11.5382 64.8266Z" fill="#646F71"/>
<path d="M11.5382 64.8266H22.0271C22.6061 64.8266 23.076 64.3567 23.076 63.7777V59.5821C23.076 59.0031 22.6061 58.5332 22.0271 58.5332H11.5382C10.9592 58.5332 10.4893 59.0031 10.4893 59.5821V63.7777C10.4894 64.3567 10.9592 64.8266 11.5382 64.8266Z" stroke="#005A5F"/>
<path d="M324.154 47.7388C323.326 47.7388 322.654 47.0672 322.654 46.2388C322.654 45.4103 323.326 44.7388 324.154 44.7388L324.154 47.7388ZM360.731 45.1781C361.317 45.7639 361.317 46.7136 360.731 47.2994L351.185 56.8454C350.6 57.4312 349.65 57.4312 349.064 56.8454C348.478 56.2596 348.478 55.3098 349.064 54.7241L357.549 46.2388L349.064 37.7535C348.478 37.1677 348.478 36.218 349.064 35.6322C349.65 35.0464 350.6 35.0464 351.185 35.6322L360.731 45.1781ZM324.154 44.7388L359.671 44.7388L359.671 47.7388L324.154 47.7388L324.154 44.7388Z" fill="#646F71"/>
<path fill-rule="evenodd" clip-rule="evenodd" d="M444.602 66.4327C445.919 65.9263 447.046 65.0197 447.827 63.8385C448.609 62.6574 449.006 61.2604 448.963 59.8415C449.157 58.7849 449.118 57.6982 448.848 56.6586C448.579 55.619 448.085 54.6519 447.403 53.8259C446.721 52.9999 445.867 52.3352 444.902 51.8791C443.936 51.423 442.883 51.1865 441.816 51.1865C440.75 51.1865 439.697 51.423 438.731 51.8791C437.765 52.3352 436.911 52.9999 436.229 53.8259C435.547 54.6519 435.054 55.619 434.784 56.6586C434.515 57.6982 434.475 58.7849 434.669 59.8415C434.627 61.2604 435.024 62.6574 435.806 63.8385C436.587 65.0197 437.714 65.9263 439.03 66.4327C436.682 67.0719 434.606 68.4678 433.119 70.4071C431.631 72.3465 430.815 74.723 430.793 77.1738V83.7649H452.84V77.1738C452.818 74.723 452.001 72.3465 450.514 70.4071C449.027 68.4678 446.951 67.0719 444.602 66.4327V66.4327Z" fill="#646F71"/>
<path d="M426.917 24.4115C426.355 24.3723 425.796 24.532 425.338 24.8631C424.88 25.1943 424.55 25.6761 424.407 26.2256C424.263 26.7751 424.315 27.3578 424.552 27.8733C424.789 28.3888 425.197 28.8049 425.706 29.0497L433.216 33.9321L430.309 43.2085C430.186 43.6821 430.207 44.1822 430.369 44.6437C430.531 45.1052 430.828 45.5068 431.22 45.7964C431.612 46.086 432.081 46.2501 432.567 46.2675C433.052 46.2848 433.532 46.1546 433.943 45.8938L441.454 40.035L448.964 45.8938C449.383 46.2107 449.893 46.382 450.418 46.382C450.942 46.382 451.452 46.2107 451.871 45.8938C452.324 45.6361 452.67 45.2239 452.848 44.7315C453.026 44.2392 453.023 43.699 452.84 43.2085L449.933 33.9321L457.443 29.0497C457.839 28.685 458.136 28.2245 458.305 27.7118C458.475 27.1992 458.512 26.6514 458.413 26.1203C458.253 25.6059 457.928 25.1594 457.49 24.8502C457.052 24.5411 456.524 24.3869 455.99 24.4115H446.784L443.876 13.9145C443.716 13.4001 443.392 12.9535 442.954 12.6444C442.515 12.3353 441.988 12.181 441.454 12.2057C440.961 12.2327 440.488 12.4109 440.098 12.7163C439.708 13.0217 439.42 13.4397 439.273 13.9145L436.366 24.4115H426.917Z" fill="#646F71"/>
<path d="M443.877 0H439.031V7.32349H443.877V0Z" fill="#646F71"/>
<path d="M472.95 26.8525H465.682V31.7349H472.95V26.8525Z" fill="#646F71"/>
<path d="M417.226 26.8525H409.958V31.7349H417.226V26.8525Z" fill="#646F71"/>
<path d="M460.572 44.68L457.146 48.1323L462.285 53.3108L465.711 49.8585L460.572 44.68Z" fill="#646F71"/>
<path d="M420.885 5.06183L417.459 8.51416L422.598 13.6927L426.025 10.2403L420.885 5.06183Z" fill="#646F71"/>
<path d="M422.73 44.7424L417.591 49.9209L421.017 53.3732L426.156 48.1947L422.73 44.7424Z" fill="#646F71"/>
<path d="M462.148 4.99875L457.009 10.1772L460.435 13.6296L465.574 8.45108L462.148 4.99875Z" fill="#646F71"/>
<path d="M265.132 41.1343C263.493 38.8044 261.476 36.7335 259.207 35.0508C258.829 34.7919 258.324 34.7919 257.946 34.9214L253.786 36.8629C253.03 36.4746 252.147 36.0863 251.265 35.8274L249.752 31.0383C249.626 30.65 249.122 30.2617 248.617 30.2617H240.675C240.171 30.2617 239.667 30.65 239.541 31.1678L238.028 35.9569L235.633 36.9923L231.472 34.9214C231.094 34.6625 230.59 34.7919 230.212 35.0508C227.943 36.7335 225.926 38.8044 224.287 41.1343C224.035 41.5226 224.035 42.0403 224.161 42.4286L226.178 46.7L225.169 49.1592L220.505 50.7125C219.748 50.9713 219.37 51.4891 219.37 52.0068V60.1612C219.37 60.679 219.748 61.1967 220.253 61.3262L224.917 62.8794L225.926 65.3386L223.908 69.61C223.656 69.9983 223.782 70.516 224.035 70.9044C225.673 73.2342 227.69 75.3051 229.96 76.9878C230.338 77.2467 230.842 77.2467 231.22 77.1172L235.002 75.1757L233.868 72.8459L230.842 74.3991C229.203 73.1047 227.69 71.681 226.556 69.9983L228.447 65.8564C228.573 65.4681 228.573 65.2092 228.447 64.8209L227.06 61.1967C226.934 60.8084 226.682 60.5495 226.304 60.4201L221.891 59.2552V52.9129L226.178 51.4891C226.556 51.3596 226.808 51.1008 226.934 50.7125L228.321 47.0883C228.447 46.7 228.447 46.3117 228.321 46.0528L226.43 41.9109C227.69 40.2282 229.077 38.675 230.716 37.5101L234.75 39.4516C235.128 39.581 235.38 39.581 235.759 39.4516L239.289 38.0278C239.667 37.8984 239.919 37.6395 240.045 37.2512L241.432 32.8504H247.609L248.996 37.2512C249.122 37.6395 249.374 37.8984 249.878 38.0278C251.013 38.4161 252.147 38.8044 253.156 39.4516C253.534 39.581 253.912 39.7105 254.29 39.4516L258.324 37.5101C259.963 38.8044 261.476 40.2282 262.611 41.9109L260.72 46.0528C260.594 46.4411 260.594 46.8294 260.72 47.2177C261.224 48.2532 261.728 49.4181 262.106 50.583C262.233 50.9713 262.485 51.2302 262.863 51.4891L267.149 52.9129V59.2552L262.863 60.679C262.485 60.8084 262.233 61.0673 262.106 61.585C261.728 62.7499 261.35 63.9149 260.72 64.9503C260.594 65.3386 260.468 65.7269 260.72 66.1153L262.611 70.2572C261.35 71.9398 259.963 73.4931 258.324 74.658L255.299 73.1047L254.164 75.4346L257.946 77.3761C258.324 77.635 258.829 77.5055 259.207 77.2467C261.476 75.564 263.493 73.493 265.132 71.1632C265.384 70.7749 265.384 70.2572 265.258 69.8689L263.367 65.5975C263.745 64.8209 264.123 63.9149 264.376 63.0088L269.04 61.4556C269.544 61.3261 269.923 60.8084 269.923 60.2907V52.1363C269.923 51.6185 269.544 51.1008 269.04 50.9713L264.376 49.4181C264.123 48.5121 263.745 47.7355 263.367 46.8294L265.258 42.5581C265.384 42.0403 265.384 41.5226 265.132 41.1343Z" fill="#646F71" stroke="#646F71"/>
<path d="M238.236 81.1804V85.0267C238.236 85.796 238.748 86.3089 239.518 86.3089H249.775C250.544 86.3089 251.057 85.796 251.057 85.0267V81.1804C251.826 81.1804 252.339 80.6675 252.339 79.8982V77.975C252.467 73.103 254.134 68.4873 257.083 64.6409C259.006 61.9485 260.032 58.7432 260.032 55.5379C260.032 47.0758 253.108 40.1523 244.646 40.1523C236.184 40.1523 229.261 47.0758 229.261 55.5379C229.261 58.9996 230.415 62.3331 232.594 65.0256C235.543 68.872 237.082 73.744 236.953 78.6161V79.8982C236.953 80.6675 237.466 81.1804 238.236 81.1804ZM248.493 83.7446H240.8V81.1804H248.493V83.7446ZM234.517 63.487C232.338 60.6664 231.312 57.0764 231.953 53.4865C232.851 47.8451 237.466 43.4859 243.108 42.8448C250.159 42.0755 256.442 47.0758 257.339 54.1275C257.724 57.3328 256.826 60.5381 254.903 63.2306C251.57 67.4616 249.775 72.7183 249.647 78.1033V78.6161H245.8V68.2309C249.262 67.4616 251.57 64.1281 250.8 60.6664C250.031 57.2046 246.698 54.8968 243.236 55.6661C239.774 56.4353 237.466 59.7689 238.236 63.2306C238.748 65.7949 240.672 67.718 243.236 68.2309V78.6161H239.39C239.646 73.103 237.851 67.8463 234.517 63.487ZM244.646 65.7949C242.467 65.7949 240.8 64.1281 240.8 61.9485C240.8 59.7689 242.467 58.1021 244.646 58.1021C246.826 58.1021 248.493 59.7689 248.493 61.9485C248.493 64.1281 246.826 65.7949 244.646 65.7949Z" fill="#646F71" stroke="#646F71"/>
<path d="M234.755 13.2285V19.3094C234.755 21.4191 236.475 23.0324 238.564 23.1565H241.512L243.601 26.3831C243.97 27.0036 244.707 27.1277 245.321 26.7554C245.444 26.6313 245.567 26.5072 245.69 26.3831L247.779 23.1565H250.727C252.816 23.1565 254.413 21.4191 254.536 19.3094V13.2285C254.536 11.1187 252.816 9.50545 250.727 9.38135H238.564C236.475 9.38135 234.755 11.1187 234.755 13.2285ZM237.212 13.2285C237.212 12.4839 237.827 11.8634 238.564 11.8634H250.727C251.342 11.8634 251.956 12.4839 251.956 13.2285V19.3094C251.956 19.9299 251.342 20.5504 250.605 20.5504H247.041C246.673 20.5504 246.304 20.7986 246.059 21.0468L244.584 23.2806L243.11 21.0468C242.864 20.7986 242.495 20.5504 242.127 20.5504H238.564C237.827 20.5504 237.212 19.9299 237.212 19.1853V13.2285Z" fill="#646F71" stroke="#646F71"/>
<path d="M274.727 9.38135C268.316 9.38135 263.188 14.5099 263.188 20.9205C263.188 27.3311 268.316 32.4596 274.727 32.4596C281.137 32.4596 286.266 27.3311 286.266 20.9205C286.266 14.5099 281.137 9.38135 274.727 9.38135ZM274.727 29.8954C269.726 29.8954 265.752 25.9208 265.752 20.9205C265.752 15.9202 269.726 11.9456 274.727 11.9456C279.727 11.9456 283.702 15.9202 283.702 20.9205C283.702 25.9208 279.727 29.8954 274.727 29.8954Z" fill="#646F71" stroke="#646F71"/>
<path d="M217.722 32.4601C224.132 32.4601 229.261 27.3316 229.261 20.921C229.261 14.5103 224.132 9.38184 217.722 9.38184C211.311 9.38184 206.183 14.5103 206.183 20.921C206.183 27.3316 211.311 32.4601 217.722 32.4601ZM217.722 11.9461C222.722 11.9461 226.697 15.9207 226.697 20.921C226.697 25.9213 222.722 29.8958 217.722 29.8958C212.721 29.8958 208.747 25.9213 208.747 20.921C208.747 15.9207 212.721 11.9461 217.722 11.9461Z" fill="#646F71" stroke="#646F71"/>
<path d="M274.723 19.7114C273.954 19.7114 273.441 19.2279 273.441 18.5026C273.441 17.7772 273.954 17.2937 274.723 17.2937H277.288V14.876H274.723C272.544 14.876 270.877 16.4475 270.877 18.5026C270.877 20.5576 272.544 22.1291 274.723 22.1291C275.493 22.1291 276.005 22.6127 276.005 23.338C276.005 24.0633 275.493 24.5469 274.723 24.5469H272.159V26.9646H274.723C276.903 26.9646 278.57 25.3931 278.57 23.338C278.57 21.2829 276.903 19.7114 274.723 19.7114Z" fill="#646F71" stroke="#646F71"/>
<path d="M244.646 14.876H239.151V17.0739H244.646V14.876Z" fill="#646F71" stroke="#646F71"/>
<path d="M250.143 14.876H246.846V17.0739H250.143V14.876Z" fill="#646F71" stroke="#646F71"/>
<path d="M214.974 20.3711H212.776V24.767H214.974V20.3711Z" fill="#646F71" stroke="#646F71"/>
<path d="M219.372 18.1724H216.075V24.7662H219.372V18.1724Z" fill="#646F71" stroke="#646F71"/>
<path d="M222.669 15.9746H220.471V24.7663H222.669V15.9746Z" fill="#646F71" stroke="#646F71"/>
<path d="M211.681 33.5581H208.384V35.756H211.681V33.5581Z" fill="#646F71" stroke="#646F71"/>
<path d="M211.681 39.0537H208.384V41.2516H211.681V39.0537Z" fill="#646F71" stroke="#646F71"/>
<path d="M211.681 43.4492H208.384V46.7461H211.681V43.4492Z" fill="#646F71" stroke="#646F71"/>
<path d="M211.681 48.9434H208.384V51.1413H211.681V48.9434Z" fill="#646F71" stroke="#646F71"/>
<path d="M211.681 54.4385H208.384V56.6364H211.681V54.4385Z" fill="#646F71" stroke="#646F71"/>
<path d="M216.074 54.4385H213.876V56.6364H216.074V54.4385Z" fill="#646F71" stroke="#646F71"/>
<path d="M245.745 61.0317H243.547V63.2297H245.745V61.0317Z" fill="#646F71" stroke="#646F71"/>
<path d="M102.467 47.7388C101.638 47.7388 100.967 47.0672 100.967 46.2388C100.967 45.4103 101.638 44.7388 102.467 44.7388L102.467 47.7388ZM139.044 45.1781C139.63 45.7639 139.63 46.7136 139.044 47.2994L129.498 56.8454C128.912 57.4312 127.962 57.4312 127.377 56.8454C126.791 56.2596 126.791 55.3098 127.377 54.7241L135.862 46.2388L127.377 37.7535C126.791 37.1677 126.791 36.218 127.377 35.6322C127.962 35.0464 128.912 35.0464 129.498 35.6322L139.044 45.1781ZM102.467 44.7388L137.983 44.7388L137.983 47.7388L102.467 47.7388L102.467 44.7388Z" fill="#646F71"/>
</svg>
