<svg width="660" height="128" viewBox="0 0 660 128" fill="none" xmlns="http://www.w3.org/2000/svg">
<path d="M107.299 35C117.699 35 126.599 38 132.599 44.4C137.399 49.5 140.299 56.8 140.299 66.1C140.299 75.5 137.699 82.5 133.699 87.3C127.799 94.2 118.999 97.1 110.499 97.1C107.299 97.1 104.599 96.8 101.899 96.1V118.9C101.899 123.5 98.0992 127.2 93.7992 127.2C89.3992 127.2 85.6992 123.4 85.6992 118.9V47.8C85.6992 40.1 89.0992 37.4 95.3992 36.2C98.7992 35.4 102.899 35 107.299 35ZM101.899 81.8C103.899 82.6 105.799 83 108.699 83C112.699 83 116.799 82.1 119.799 79.2C122.599 76.6 124.199 72.2 124.199 66.1C124.199 60.9 122.899 56.9 120.299 53.9C117.599 50.7 113.699 49 108.899 49C106.599 49 103.899 49.3 101.799 49.5V81.8H101.899Z" fill="black"/>
<path d="M209.899 86.2996C209.899 89.7996 207.599 92.2996 202.899 94.1996C197.899 96.3996 192.399 97.0996 186.999 97.0996C177.599 97.0996 169.999 93.9996 164.899 88.3996C159.599 82.6996 156.699 74.6996 156.699 65.3996C156.699 56.3996 159.799 48.7996 164.599 43.3996C169.499 38.1996 176.499 35.0996 185.299 35.0996C194.299 35.0996 200.799 38.1996 205.199 42.8996C210.599 48.7996 212.199 55.7996 212.199 61.5996C212.199 67.6996 209.299 71.1996 204.299 71.1996H173.699C175.199 79.0996 180.199 83.3996 188.099 83.3996C196.699 83.3996 199.799 79.3996 203.899 79.3996C207.299 79.3996 209.899 82.4996 209.899 86.2996ZM196.599 59.8996C196.099 53.6996 192.099 48.5996 185.499 48.5996C178.799 48.5996 174.699 52.9996 173.599 59.8996H196.599Z" fill="black"/>
<path d="M271.099 37.5C273.899 39.2 275.899 41.8 275.899 45.3C275.899 49.9 272.999 53.2 268.899 53.2C264.799 53.2 263.299 50.1 258.299 50.1C249.999 50.1 247.699 58.3 247.699 66.5V88.7C247.699 93.3 243.899 97 239.599 97C235.099 97 231.499 93.2 231.499 88.7V43.3C231.499 38.7 234.999 35 239.599 35C243.499 35 246.699 38 247.399 41.8C250.699 37.5 255.599 35 261.199 35C264.599 35 268.299 35.8 271.099 37.5Z" fill="black"/>
<path d="M287.299 9.9C287.299 4.4 291.499 0 296.599 0C301.699 0 305.899 4.4 305.899 9.9C305.899 15.4 301.699 19.8 296.599 19.8C291.499 19.8 287.299 15.4 287.299 9.9ZM296.499 35C300.999 35 304.599 38.8 304.599 43.3V88.7C304.599 93.3 300.799 97 296.499 97C291.999 97 288.399 93.2 288.399 88.7V43.3C288.499 38.8 291.999 35 296.499 35Z" fill="black"/>
<path d="M375.199 86.2996C375.199 89.7996 372.899 92.2996 368.199 94.1996C363.199 96.3996 357.699 97.0996 352.299 97.0996C342.899 97.0996 335.299 93.9996 330.199 88.3996C324.899 82.6996 321.999 74.6996 321.999 65.3996C321.999 56.3996 325.099 48.7996 329.899 43.3996C334.799 38.1996 341.799 35.0996 350.599 35.0996C359.599 35.0996 366.099 38.1996 370.499 42.8996C375.899 48.7996 377.499 55.7996 377.499 61.5996C377.499 67.6996 374.599 71.1996 369.599 71.1996H338.999C340.499 79.0996 345.499 83.3996 353.399 83.3996C361.999 83.3996 365.099 79.3996 369.199 79.3996C372.699 79.3996 375.199 82.4996 375.199 86.2996ZM361.899 59.8996C361.399 53.6996 357.399 48.5996 350.799 48.5996C344.099 48.5996 339.999 52.9996 338.899 59.8996H361.899Z" fill="black"/>
<path d="M404.899 35C409.099 35 412.199 38.1 412.799 42.2C417.399 37.3 423.699 35 429.499 35C435.699 35 441.599 36.7 445.899 40.8C449.799 44.6 452.399 50.7 452.399 59.5V88.6C452.399 93.2 448.599 96.9 444.199 96.9C439.799 96.9 436.099 93.1 436.099 88.6V63.8C436.099 59.6 435.599 55.3 433.299 52.6C431.799 50.8 429.399 49.6 425.999 49.6C416.499 49.6 412.899 59.1 412.899 67.7V88.6C412.899 93.2 409.099 96.9 404.799 96.9C400.299 96.9 396.699 93.1 396.699 88.6V43.2C396.899 38.8 400.399 35 404.899 35Z" fill="black"/>
<path d="M513.399 53.1C509.099 53.1 506.599 49.7 500.399 49.7C495.799 49.7 491.799 51.5 489.199 54.6C486.799 57.5 485.299 61.4 485.299 66C485.299 70.7 486.799 74.8 489.299 77.8C491.799 80.8 495.699 82.5 500.499 82.5C507.499 82.5 509.899 79.4 513.599 79.4C517.299 79.4 520.099 82.6 520.099 86.6C520.099 90.8 516.899 93.4 511.699 95.2C508.199 96.5 504.099 97 500.099 97C489.799 97 481.599 93.6 476.299 87.5C471.499 82.2 468.999 74.8 468.999 65.9C468.999 58.2 471.199 51.7 474.999 46.8C480.899 39.1 489.999 35 500.499 35C503.199 35 508.299 35.3 513.599 37.9C517.599 39.9 519.999 42.3 519.999 46.1C519.899 50 516.999 53.1 513.399 53.1Z" fill="black"/>
<path d="M586.899 86.2996C586.899 89.7996 584.599 92.2996 579.899 94.1996C574.899 96.3996 569.399 97.0996 563.999 97.0996C554.599 97.0996 546.999 93.9996 541.899 88.3996C536.599 82.6996 533.699 74.6996 533.699 65.3996C533.699 56.3996 536.799 48.7996 541.599 43.3996C546.499 38.1996 553.499 35.0996 562.299 35.0996C571.299 35.0996 577.799 38.1996 582.199 42.8996C587.599 48.7996 589.199 55.7996 589.199 61.5996C589.199 67.6996 586.299 71.1996 581.299 71.1996H550.699C552.199 79.0996 557.199 83.3996 565.099 83.3996C573.699 83.3996 576.799 79.3996 580.899 79.3996C584.299 79.3996 586.899 82.4996 586.899 86.2996ZM573.599 59.8996C573.099 53.6996 569.099 48.5996 562.499 48.5996C555.799 48.5996 551.699 52.9996 550.599 59.8996H573.599Z" fill="black"/>
<path d="M637.999 95.7004C628.499 95.7004 619.899 93.2004 613.899 87.9004C608.499 83.1004 605.199 75.9004 605.199 66.3004C605.199 58.9004 606.999 51.3004 611.299 45.5004C616.099 39.3004 623.799 34.8004 634.899 34.8004C637.999 34.8004 640.599 35.2004 643.299 36.0004V14.4004C643.299 9.7004 646.799 5.90039 651.399 5.90039C655.999 5.90039 659.499 9.7004 659.499 14.4004V86.4004C659.499 92.5004 655.199 95.6004 650.299 95.6004H637.999V95.7004ZM643.299 81.4004V50.6004C640.899 49.9004 638.699 49.7004 635.799 49.7004C630.999 49.7004 626.999 51.9004 624.599 55.4004C622.599 58.3004 621.699 61.8004 621.699 66.1004C621.699 71.4004 623.499 75.1004 626.099 77.4004C629.599 80.4004 634.499 81.4004 639.699 81.4004H643.299Z" fill="black"/>
<g opacity="0.35">
<path opacity="0.35" d="M46.6 56.7992L35.7 68.4992L17.9 90.0992C15.8 92.4992 13.6 95.4992 8.8 95.4992C3.7 95.4992 0 91.7992 0 87.1992C0 84.7992 1 82.9992 3 80.5992L25.1 55.5992L4.9 33.2992C3.3 31.4992 2 29.8992 2 27.4992C2 23.1992 5.7 19.6992 10.5 19.6992C14.7 19.6992 16.7 22.0992 18.8 24.4992L35.8 45.0992L46.6 56.7992Z" fill="black"/>
</g>
<path d="M34.4 45.0992L51.4 24.4992C53.5 22.0992 55.6 19.6992 59.7 19.6992C64.5 19.6992 68.2 23.1992 68.2 27.4992C68.2 29.8992 66.9 31.4992 65.3 33.2992L45 55.6992L67.1 80.6992C69.2 83.0992 70.1 84.8992 70.1 87.2992C70.1 91.8992 66.4 95.5992 61.3 95.5992C56.5 95.5992 54.3 92.5992 52.2 90.1992L34.4 68.5992L23.5 56.8992L34.4 45.0992Z" fill="black"/>
</svg>
