<svg width="112" height="88" viewBox="0 0 112 88" fill="none" xmlns="http://www.w3.org/2000/svg">
<path fill-rule="evenodd" clip-rule="evenodd" d="M31.4349 3C25.7622 3 21.2215 7.48779 21.2215 12.9532C21.2215 18.4186 25.7622 22.9063 31.4349 22.9063C37.1076 22.9063 41.6484 18.4186 41.6484 12.9532C41.6484 7.48779 37.1076 3 31.4349 3ZM18.2215 12.9532C18.2215 5.76773 24.1693 0 31.4349 0C38.7006 0 44.6484 5.76773 44.6484 12.9532C44.6484 16.068 43.5308 18.9164 41.6726 21.144L47.4124 26.8838C50.0167 25.6804 52.9165 25.0091 55.9734 25.0091C59.5328 25.0091 62.8793 25.9193 65.7941 27.5197L72.5891 20.2718C71.1339 18.1933 70.2805 15.6749 70.2805 12.9532C70.2805 5.76773 76.2283 0 83.494 0C90.7596 0 96.7074 5.76773 96.7074 12.9532C96.7074 20.1386 90.7596 25.9063 83.494 25.9063C80.4343 25.9063 77.6083 24.8835 75.3618 23.1627L69.1314 29.8084C72.9886 33.0563 75.6314 37.7043 76.2811 42.9697H85.4352C86.0628 36.362 91.7413 31.2356 98.5911 31.2356C105.857 31.2356 111.805 37.0034 111.805 44.1888C111.805 51.3742 105.857 57.142 98.5911 57.142C92.2915 57.142 86.9826 52.8061 85.6822 46.9697H76.3856C76.0783 51.3465 74.3992 55.3452 71.776 58.5359L76.9113 63.6711C78.8523 62.5762 81.1013 61.9511 83.4932 61.9511C90.7588 61.9511 96.7067 67.7188 96.7067 74.9043C96.7067 82.0897 90.7588 87.8575 83.4932 87.8575C76.2275 87.8575 70.2797 82.0897 70.2797 74.9043C70.2797 71.5255 71.5949 68.4601 73.7438 66.1605L68.9478 61.3645C65.4173 64.268 60.8992 66.0111 55.9734 66.0111C50.6136 66.0111 45.7365 63.9472 42.089 60.5703L38.6237 64.0356C42.2429 66.3398 44.6477 70.3354 44.6477 74.9043C44.6477 82.0897 38.6998 87.8575 31.4342 87.8575C24.1685 87.8575 18.2207 82.0897 18.2207 74.9043C18.2207 67.7188 24.1685 61.9511 31.4342 61.9511C32.5464 61.9511 33.6277 62.0863 34.6615 62.341L39.4274 57.5751C37.2318 54.5579 35.8385 50.9177 35.5613 46.9697H26.1224C24.8219 52.8061 19.513 57.142 13.2135 57.142C5.94783 57.142 0 51.3742 0 44.1888C0 37.0034 5.94783 31.2356 13.2135 31.2356C20.0632 31.2356 25.7417 36.362 26.3694 42.9697H35.6658C36.3724 37.2424 39.4373 32.2455 43.8582 28.9865L38.6666 23.7949C36.5853 25.1311 34.0987 25.9063 31.4349 25.9063C24.1693 25.9063 18.2215 20.1386 18.2215 12.9532ZM39.5102 45.5101C39.5102 36.393 46.8849 29.0091 55.9734 29.0091C65.062 29.0091 72.4367 36.393 72.4367 45.5101C72.4367 54.6272 65.062 62.0111 55.9734 62.0111C46.8849 62.0111 39.5102 54.6272 39.5102 45.5101ZM52.5521 34.2975C53.5471 33.5995 54.6612 33.2595 55.7519 33.2614C56.855 33.2512 57.9838 33.591 58.9908 34.2973C61.4858 36.0474 61.9848 39.2976 60.2383 41.7977C59.9888 42.2977 59.4898 42.7978 58.9908 43.0478C62.2343 44.2978 64.2303 47.298 64.2303 50.7982V55.5485H55.9022V55.5487H47.3125V50.7984C47.3125 47.2982 49.3085 44.2981 52.5521 43.048C52.0531 42.798 51.5541 42.2979 51.3046 41.7979C49.558 39.2978 50.057 36.0476 52.5521 34.2975ZM21.2207 74.9043C21.2207 69.4389 25.7615 64.9511 31.4342 64.9511C37.1069 64.9511 41.6477 69.4389 41.6477 74.9043C41.6477 80.3697 37.1069 84.8575 31.4342 84.8575C25.7615 84.8575 21.2207 80.3697 21.2207 74.9043ZM29.6322 6.0586C30.2329 5.63728 30.9059 5.43331 31.5641 5.437C32.2223 5.43332 32.8952 5.63729 33.4959 6.0586C34.9929 7.10866 35.2923 9.05877 34.2444 10.5589C34.0947 10.8589 33.7953 11.1589 33.4959 11.3089C35.442 12.0589 36.6396 13.859 36.6396 15.9592V18.8093H31.6421H31.4832H26.4885V15.9592C26.4885 13.859 27.6861 12.0589 29.6322 11.3089C29.3328 11.1589 29.0334 10.8589 28.8837 10.5589C27.8358 9.05877 28.1352 7.10866 29.6322 6.0586ZM10.8909 37.5224C11.4915 37.1011 12.1644 36.8971 12.8226 36.9008C13.4809 36.897 14.1539 37.101 14.7546 37.5224C16.2516 38.5724 16.551 40.5225 15.5031 42.0226C15.3534 42.3226 15.054 42.6227 14.7546 42.7727C16.7007 43.5227 17.8983 45.3228 17.8983 47.4229V50.2731H12.9015H12.7444H7.74717V47.4229C7.74717 45.3228 8.94479 43.5227 10.8909 42.7727C10.5915 42.6227 10.2921 42.3226 10.1424 42.0226C9.09449 40.5225 9.3939 38.5724 10.8909 37.5224ZM73.2805 12.9532C73.2805 7.48779 77.8213 3 83.494 3C89.1667 3 93.7074 7.48779 93.7074 12.9532C93.7074 18.4186 89.1667 22.9063 83.494 22.9063C77.8213 22.9063 73.2805 18.4186 73.2805 12.9532ZM83.6244 5.437C82.966 5.43322 82.2929 5.63719 81.6921 6.0586C80.1951 7.10866 79.8957 9.05877 80.9436 10.5589C81.0933 10.8589 81.3927 11.1589 81.6921 11.3089C79.746 12.0589 78.5484 13.859 78.5484 15.9592V18.8093H83.5451H83.704H88.7004V15.9592C88.7004 13.859 87.5028 12.0589 85.5567 11.3089C85.8561 11.1589 86.1555 10.8589 86.3052 10.5589C87.3531 9.05877 87.0537 7.10866 85.5567 6.0586C84.9559 5.6372 84.2828 5.43323 83.6244 5.437ZM83.624 68.1367C82.9658 68.133 82.2928 68.3369 81.6921 68.7583C80.1951 69.8083 79.8957 71.7584 80.9436 73.2585C81.0933 73.5585 81.3927 73.8586 81.6921 74.0086C79.746 74.7586 78.5484 76.5587 78.5484 78.6588V81.509H83.5451H83.704H88.7004V78.6588C88.7004 76.5587 87.5028 74.7586 85.5567 74.0086C85.8561 73.8586 86.1555 73.5585 86.3052 73.2585C87.3531 71.7584 87.0537 69.8083 85.5567 68.7583C84.9558 68.3368 84.2825 68.1328 83.624 68.1367ZM31.0433 68.1367C30.3851 68.133 29.7122 68.337 29.1116 68.7583C27.6146 69.8083 27.3152 71.7584 28.3631 73.2585C28.5128 73.5585 28.8122 73.8586 29.1116 74.0086C27.1655 74.7586 25.9679 76.5587 25.9679 78.6588V81.509H30.9642H31.1213H36.119V78.6588C36.119 76.5587 34.9214 74.7586 32.9753 74.0086C33.2747 73.8586 33.5741 73.5585 33.7238 73.2585C34.7717 71.7584 34.4723 69.8083 32.9753 68.7583C32.3746 68.3369 31.7015 68.1329 31.0433 68.1367ZM98.6441 36.9022C98.0103 36.914 97.3659 37.1182 96.7885 37.5233C95.2914 38.5733 94.992 40.5234 96.0399 42.0235C96.1896 42.3235 96.489 42.6236 96.7885 42.7736C94.8423 43.5236 93.6447 45.3237 93.6447 47.4238V50.274H98.7992V50.2731H103.797V47.4229C103.797 45.3228 102.6 43.5227 100.654 42.7727C100.953 42.6227 101.252 42.3226 101.402 42.0226C102.45 40.5225 102.151 38.5724 100.654 37.5224C100.029 37.0845 99.3269 36.8813 98.6441 36.9022ZM98.5911 34.2356C92.9184 34.2356 88.3776 38.7234 88.3776 44.1888C88.3776 49.6542 92.9184 54.142 98.5911 54.142C104.264 54.142 108.805 49.6542 108.805 44.1888C108.805 38.7234 104.264 34.2356 98.5911 34.2356ZM3 44.1888C3 38.7234 7.54077 34.2356 13.2135 34.2356C18.8862 34.2356 23.427 38.7234 23.427 44.1888C23.427 49.6542 18.8862 54.142 13.2135 54.142C7.54077 54.142 3 49.6542 3 44.1888ZM73.2797 74.9043C73.2797 69.4389 77.8205 64.9511 83.4932 64.9511C89.1659 64.9511 93.7067 69.4389 93.7067 74.9043C93.7067 80.3697 89.1659 84.8575 83.4932 84.8575C77.8205 84.8575 73.2797 80.3697 73.2797 74.9043Z" fill="white"/>
</svg>
