<svg width="75" height="77" viewBox="0 0 75 77" fill="none" xmlns="http://www.w3.org/2000/svg">
<path d="M36.7136 49.3014C42.4019 49.3014 47.0131 44.6902 47.0131 39.0019C47.0131 33.3136 42.4019 28.7024 36.7136 28.7024C31.0253 28.7024 26.4141 33.3136 26.4141 39.0019C26.4141 44.6902 31.0253 49.3014 36.7136 49.3014Z" stroke="white" stroke-width="3" stroke-miterlimit="10"/>
<path d="M36.7134 45.4869C40.2949 45.4869 43.1983 42.5835 43.1983 39.002C43.1983 35.4205 40.2949 32.5171 36.7134 32.5171C33.1319 32.5171 30.2285 35.4205 30.2285 39.002C30.2285 42.5835 33.1319 45.4869 36.7134 45.4869Z" fill="white"/>
<path d="M36.713 53.8792C44.9294 53.8792 51.5901 47.2185 51.5901 39.0021C51.5901 30.7857 44.9294 24.125 36.713 24.125C28.4966 24.125 21.8359 30.7857 21.8359 39.0021C21.8359 47.2185 28.4966 53.8792 36.713 53.8792Z" stroke="white" stroke-width="3" stroke-miterlimit="10"/>
<path d="M72.0131 47.615V62.3507C72.0131 69.0146 66.5551 74.4584 59.8738 74.4584H44.8174" stroke="white" stroke-width="4" stroke-miterlimit="10" stroke-linecap="round"/>
<path d="M45.1943 2H59.9685C66.6498 2 72.1078 7.44376 72.1078 14.1077V28.6557" stroke="white" stroke-width="4" stroke-miterlimit="10" stroke-linecap="round"/>
<path d="M2 47.615V62.3507C2 69.0146 7.45797 74.4584 14.1393 74.4584H29.1957" stroke="white" stroke-width="4" stroke-miterlimit="10" stroke-linecap="round"/>
<path d="M28.8193 2H14.1393C7.45797 2 2 7.44376 2 14.1077V28.6557" stroke="white" stroke-width="4" stroke-miterlimit="10" stroke-linecap="round"/>
</svg>
